<?xml version="1.0" encoding="UTF-8" standalone="no"?>
<svg
   xmlns:dc="http://purl.org/dc/elements/1.1/"
   xmlns:cc="http://creativecommons.org/ns#"
   xmlns:rdf="http://www.w3.org/1999/02/22-rdf-syntax-ns#"
   xmlns:svg="http://www.w3.org/2000/svg"
   xmlns="http://www.w3.org/2000/svg"
   xmlns:xlink="http://www.w3.org/1999/xlink"
   xmlns:sodipodi="http://sodipodi.sourceforge.net/DTD/sodipodi-0.dtd"
   xmlns:inkscape="http://www.inkscape.org/namespaces/inkscape"
   inkscape:version="1.0 (4035a4fb49, 2020-05-01)"
   sodipodi:docname="sumbar.svg"
   id="svg146"
   version="1.1"
   width="600"
   height="600">
  <metadata
     id="metadata150">
    <rdf:RDF>
      <cc:Work
         rdf:about="">
        <dc:format>image/svg+xml</dc:format>
        <dc:type
           rdf:resource="http://purl.org/dc/dcmitype/StillImage" />
      </cc:Work>
    </rdf:RDF>
  </metadata>
  <sodipodi:namedview
     inkscape:current-layer="svg146"
     inkscape:window-maximized="1"
     inkscape:window-y="-9"
     inkscape:window-x="-9"
     inkscape:cy="212.86544"
     inkscape:cx="235.92166"
     inkscape:zoom="0.97816438"
     showgrid="false"
     id="namedview148"
     inkscape:window-height="1001"
     inkscape:window-width="1920"
     inkscape:pageshadow="2"
     inkscape:pageopacity="0"
     guidetolerance="10"
     gridtolerance="10"
     objecttolerance="10"
     borderopacity="1"
     bordercolor="#666666"
     pagecolor="#ffffff" />
  <defs
     id="defs6">
    <ellipse
       ry="225.5"
       rx="225"
       cy="225.5"
       cx="225"
       id="a" />
    <mask
       fill="#fff"
       id="b">
      <use
         id="use3"
         xlink:href="#a"
         fill-rule="evenodd"
         fill="#fff" />
    </mask>
  </defs>
  <ellipse
     ry="92.236832"
     rx="206.17639"
     cy="488.12054"
     cx="300.59381"
     id="path1061"
     style="opacity:0.994;fill:#1fce6d;fill-opacity:1;stroke:none;stroke-width:4.54783" />
  <g
     transform="matrix(1.2370372,0,0,1.2370372,235.03085,14.821416)"
     id="g142"
     style="fill:none;fill-rule:evenodd">
    <g
       transform="translate(14.722,11.754)"
       id="g82">
      <path
         d="M 0,10.578947 38.277778,31.301792 76.555556,10.578947 64.777778,45.842105 h -53 z"
         fill="#2b3e51"
         id="path46" />
      <path
         d="m 11.778,45.842 h 53 v 32.912 h -53 z"
         fill="#ecf0f1"
         id="path48" />
      <path
         d="m 2.944,272.702 h 70.667 v 58.772 H 2.944 Z"
         fill="#ffffff"
         id="path50" />
      <path
         d="m 5.889,208.053 h 64.778 v 58.772 H 5.889 Z"
         fill="#ffffff"
         id="path52" />
      <path
         d="m 8.833,143.404 h 58.889 v 58.772 H 8.833 Z"
         fill="#ffffff"
         id="path54" />
      <path
         d="m 11.778,78.754 h 53 v 58.772 h -53 z"
         fill="#ffffff"
         id="path56" />
      <g
         fill="#ecf0f1"
         id="g66">
        <path
           d="m 1.767,266.825 h 73.022 v 5.877 H 1.767 Z"
           id="path58" />
        <path
           d="m 1.767,202.175 h 73.022 v 5.877 H 1.767 Z"
           id="path60" />
        <path
           d="m 4.711,137.526 h 67.133 v 5.877 H 4.711 Z"
           id="path62" />
        <path
           d="M 7.656,72.877 H 68.9 v 5.877 H 7.656 Z"
           id="path64" />
      </g>
      <path
         d="M 39.456,61.123 V 72.877 H 37.1 V 61.123 H 31.211 V 72.877 H 30.033 V 61.123 H 24.144 V 72.877 H 22.967 V 61.123 h -5.89 V 72.877 H 15.9 V 61.123 H 10.011 V 72.877 H 7.656 V 58.772 H 68.9 V 72.877 H 66.544 V 61.123 H 60.656 V 72.877 H 59.478 V 61.123 h -5.89 V 72.877 H 52.411 V 61.123 H 46.522 V 72.877 H 45.344 V 61.123 Z"
         fill="#ffffff"
         id="path68" />
      <path
         d="m 5.3,275.053 h 11.778 v 54.07 H 5.3 Z m 2.356,2.35 v 49.369 h 7.239 v -49.368 h -7.24 z m 2.355,2.351 h 2.356 v 44.667 H 10.01 v -44.667 z m -1.767,-69.35 h 11.778 v 54.07 H 8.244 Z m 2.356,2.35 v 49.369 h 7.239 v -49.369 z m 2.356,2.351 h 2.355 v 44.667 h -2.355 z m 43.577,-4.701 h 11.778 v 54.07 H 56.533 Z m 2.356,2.35 v 49.369 h 7.239 v -49.369 h -7.24 z m 2.355,2.351 H 63.6 v 44.667 h -2.356 z m -7.655,-69.35 h 11.778 v 54.07 H 53.589 Z m 2.355,2.35 v 49.369 h 7.24 v -49.369 z m 2.356,2.351 h 2.356 v 44.667 H 58.3 Z m -7.656,-69.35 h 11.778 v 54.07 H 50.644 Z M 53,83.455 v 49.369 h 7.239 V 83.456 H 53 Z m 2.356,2.351 h 2.355 v 44.667 H 55.356 V 85.807 Z m -44.167,59.947 h 11.778 v 54.07 H 11.189 Z m 2.355,2.351 v 49.369 h 7.24 v -49.369 z m 2.356,2.351 h 2.356 v 44.667 H 15.9 Z m -1.767,-69.35 h 11.778 v 54.07 H 14.133 Z m 2.356,2.35 v 49.369 h 7.239 V 83.456 h -7.24 z m 2.355,2.351 H 21.2 v 44.667 H 18.844 V 85.807 Z m 40.634,189.246 h 11.778 v 54.07 H 59.478 Z m 2.355,2.35 v 49.369 h 7.24 v -49.368 h -7.24 z m 2.356,2.351 h 2.355 V 324.42 H 64.19 v -44.667 z"
         fill="#ecf0f1"
         id="path70" />
      <path
         d="m 30.033,313.842 h -7.066 v -11.167 h 7.066 z m 0,1.176 v 11.166 h -7.066 v -11.166 z m 0,-24.685 V 301.5 h -7.066 v -11.167 z m 0,-1.175 H 22.967 V 277.99 h 7.066 v 11.167 z m 23.556,24.684 h -7.067 v -11.167 h 7.067 z m 0,1.176 v 11.166 h -7.067 v -11.166 z m 0,-24.685 V 301.5 h -7.067 v -11.167 z m 0,-1.175 H 46.522 V 277.99 h 7.067 v 11.167 z M 41.81,313.842 h -7.067 v -11.167 h 7.067 z m 0,1.176 v 11.166 h -7.067 v -11.166 z m 0,-24.685 V 301.5 h -7.067 v -11.167 z m 0,-1.175 H 34.743 V 277.99 h 7.067 v 11.167 z M 30.032,249.193 h -7.066 v -11.167 h 7.066 z m 0,1.175 v 11.167 h -7.066 v -11.167 z m 0,-24.684 v 11.167 h -7.066 v -11.167 z m 0,-1.175 h -7.066 v -11.167 h 7.066 z m 23.556,24.684 h -7.067 v -11.167 h 7.067 z m 0,1.175 v 11.167 h -7.067 v -11.167 z m 0,-24.684 v 11.167 h -7.067 v -11.167 z m 0,-1.175 h -7.067 v -11.167 h 7.067 z M 41.81,249.193 h -7.067 v -11.167 h 7.067 z m 0,1.175 v 11.167 h -7.067 v -11.167 z m 0,-24.684 v 11.167 h -7.067 v -11.167 z m 0,-1.175 h -7.067 v -11.167 h 7.067 z m -5.889,-39.965 h -7.066 v -11.167 h 7.066 z m 0,1.175 v 11.167 h -7.066 v -11.167 z m 0,-24.684 v 11.167 h -7.066 v -11.167 z m 0,-1.175 h -7.066 v -11.167 h 7.066 z M 47.7,184.544 H 40.633 V 173.377 H 47.7 Z m 0,1.175 v 11.167 h -7.067 v -11.167 z m 0,-24.684 v 11.167 h -7.067 v -11.167 z m 0,-1.175 H 40.633 V 148.693 H 47.7 Z"
         fill="#227fbb"
         id="path72" />
      <ellipse
         cx="38.571999"
         cy="99.030998"
         fill="#2b3e51"
         rx="7.9499998"
         ry="7.934"
         id="ellipse74" />
      <path
         d="m 38.277778,0 26.5,47.017544 h -53 z"
         fill="#ffffff"
         id="path76" />
      <path
         d="M 38.277778,5.877193 61.833333,47.017544 H 14.722222 Z"
         fill="#f2c500"
         id="path78" />
      <path
         d="M 38.572222,11.754386 56.533333,47.017544 H 20.611111 Z"
         fill="#e94b35"
         id="path80" />
    </g>
    <ellipse
       cx="53"
       cy="11.754"
       fill="#ffffff"
       rx="2.3559999"
       ry="2.3510001"
       id="ellipse84" />
    <path
       d="m 52.411,0 h 1.178 v 9.991 h -1.178 z"
       fill="#ffffff"
       id="path86" />
    <path
       d="m 96.578,331.474 v 9.403 h 2.355 v -9.403 z m -2.356,0 h -2.355 v 9.403 h 2.355 z m 7.067,0 v 9.403 h 2.355 v -9.403 z m 4.711,0 v 11.754 H 0 v -14.105 h 106 v 2.35 z m -42.4,0 v 9.403 h 2.356 v -9.403 z m -2.356,0 H 58.89 v 9.403 h 2.355 v -9.403 z m 7.067,0 v 9.403 h 2.356 v -9.403 H 68.31 Z m 4.711,0 v 9.403 h 2.356 v -9.403 z m 4.711,0 v 9.403 h 2.356 v -9.403 z m 4.711,0 v 9.403 H 84.8 v -9.403 z m 4.712,0 v 9.403 h 2.355 v -9.403 z m -30.623,0 h -2.355 v 9.403 h 2.355 z m -4.71,0 h -2.356 v 9.403 h 2.355 v -9.403 z m -4.712,0 h -2.355 v 9.403 h 2.355 z m -30.622,0 v 9.403 h 2.355 v -9.403 H 16.49 Z m -2.356,0 h -2.355 v 9.403 h 2.355 z m 7.067,0 v 9.403 h 2.356 v -9.403 z m 4.711,0 v 9.403 h 2.356 v -9.403 H 25.91 Z m 4.711,0 v 9.403 h 2.356 v -9.403 z m 4.711,0 v 9.403 h 2.356 v -9.403 z m 4.711,0 v 9.403 H 42.4 v -9.403 z m -30.622,0 H 7.067 v 9.403 h 2.355 z m -4.71,0 H 2.355 v 9.403 H 4.71 v -9.403 z"
       fill="#ecf0f1"
       id="path88" />
    <path
       d="m 4.711,343.228 h 96.578 v 21.158 H 4.711 Z"
       fill="#f2c500"
       id="path90" />
    <path
       d="M 25.765614,401.78477 H 80.834416 V 362.2769 L 62.808395,344.28668 H 42.000796 l -16.686753,16.65361 z"
       fill="#2b3e51"
       id="path92" />
    <g
       fill="#ffffff"
       id="g104">
      <path
         d="m 34.156,397.193 h 1.85 v 1.868 h -1.85 z m 0,-2.803 h 1.85 v 1.868 h -1.85 z m 0,-2.803 h 1.85 v 1.868 h -1.85 z m 0,-2.803 h 1.85 v 1.868 h -1.85 z m 0,-2.803 h 1.85 v 1.869 h -1.85 v -1.87 z m 0,-2.803 h 1.85 v 1.869 h -1.85 v -1.87 z m 0,-2.803 h 1.85 v 1.869 h -1.85 v -1.87 z m 0,-2.803 h 1.85 v 1.869 h -1.85 z m 2.776,19.62 h 1.85 v 1.87 h -1.85 z m 0,-2.802 h 1.85 v 1.868 h -1.85 z m 0,-2.803 h 1.85 v 1.868 h -1.85 z m 0,-2.803 h 1.85 v 1.868 h -1.85 z m 0,-2.803 h 1.85 v 1.869 h -1.85 v -1.87 z m 0,-2.803 h 1.85 v 1.869 h -1.85 v -1.87 z m 0,-2.803 h 1.85 v 1.869 h -1.85 v -1.87 z m 0,-2.803 h 1.85 v 1.869 h -1.85 z m 2.776,19.62 h 1.85 v 1.87 h -1.85 z m 0,-2.802 h 1.85 v 1.868 h -1.85 z m 0,-2.803 h 1.85 v 1.868 h -1.85 z m 0,-2.803 h 1.85 v 1.868 h -1.85 z m 0,-2.803 h 1.85 v 1.869 h -1.85 v -1.87 z m 0,-2.803 h 1.85 v 1.869 h -1.85 v -1.87 z m 0,-2.803 h 1.85 v 1.869 h -1.85 v -1.87 z m 0,-2.803 h 1.85 v 1.869 h -1.85 z m 2.776,19.62 h 1.85 v 1.87 h -1.85 z m 0,-2.802 h 1.85 v 1.868 h -1.85 z m 0,-2.803 h 1.85 v 1.868 h -1.85 z m 0,-2.803 h 1.85 v 1.868 h -1.85 z m 0,-2.803 h 1.85 v 1.869 h -1.85 v -1.87 z m 0,-2.803 h 1.85 v 1.869 h -1.85 v -1.87 z m 0,-2.803 h 1.85 v 1.869 h -1.85 v -1.87 z m 0,-2.803 h 1.85 v 1.869 h -1.85 z m 2.776,19.62 h 1.851 v 1.87 h -1.85 v -1.87 z m 0,-2.802 h 1.851 v 1.868 h -1.85 v -1.868 z m 0,-2.803 h 1.851 v 1.868 h -1.85 v -1.868 z m 0,-2.803 h 1.851 v 1.868 h -1.85 v -1.868 z m 0,-2.803 h 1.851 v 1.869 h -1.85 v -1.87 z m 0,-2.803 h 1.851 v 1.869 h -1.85 v -1.87 z m 0,-2.803 h 1.851 v 1.869 h -1.85 v -1.87 z m 0,-2.803 h 1.851 v 1.869 h -1.85 v -1.869 z m -11.104,-3.737 h 1.85 v 1.868 h -1.85 z m 2.776,0 h 1.85 v 1.868 h -1.85 z m 2.776,0 h 1.85 v 1.868 h -1.85 z m 2.776,0 h 1.85 v 1.868 h -1.85 z m 2.776,0 h 1.851 v 1.868 h -1.85 v -1.868 z m -2.776,-2.803 h 1.85 v 1.868 h -1.85 z m -2.776,0 h 1.85 v 1.868 h -1.85 z m -2.776,0 h 1.85 v 1.868 h -1.85 z m -2.776,-2.803 h 1.85 v 1.868 h -1.85 z m 2.776,0 h 1.85 v 1.868 h -1.85 z m 2.776,0 h 1.85 v 1.868 h -1.85 z m 2.776,0 h 1.85 v 1.868 h -1.85 z m 2.776,0 h 1.851 v 1.868 h -1.85 v -1.868 z m -2.776,-2.803 h 1.85 v 1.868 h -1.85 z m -2.776,0 h 1.85 v 1.868 h -1.85 z m 0,-2.803 h 1.85 v 1.868 h -1.85 z m -2.776,2.803 h 1.85 v 1.868 h -1.85 z m 21.957,31.767 h 1.85 v 1.868 h -1.85 z m 0,-2.803 h 1.85 v 1.868 h -1.85 z m 0,-2.803 h 1.85 v 1.868 h -1.85 z m 0,-2.803 h 1.85 v 1.868 h -1.85 z m 0,-2.803 h 1.85 v 1.869 h -1.85 v -1.87 z m 0,-2.803 h 1.85 v 1.869 h -1.85 v -1.87 z m 0,-2.803 h 1.85 v 1.869 h -1.85 v -1.87 z m 0,-2.803 h 1.85 v 1.869 h -1.85 z m 2.776,19.62 h 1.85 v 1.87 h -1.85 z m 0,-2.802 h 1.85 v 1.868 h -1.85 z m 0,-2.803 h 1.85 v 1.868 h -1.85 z m 0,-2.803 h 1.85 v 1.868 h -1.85 z m 0,-2.803 h 1.85 v 1.869 h -1.85 v -1.87 z m 0,-2.803 h 1.85 v 1.869 h -1.85 v -1.87 z m 0,-2.803 h 1.85 v 1.869 h -1.85 v -1.87 z m 0,-2.803 h 1.85 v 1.869 h -1.85 z m 2.776,19.62 h 1.851 v 1.87 h -1.85 v -1.87 z m 0,-2.802 h 1.851 v 1.868 h -1.85 v -1.868 z m 0,-2.803 h 1.851 v 1.868 h -1.85 v -1.868 z m 0,-2.803 h 1.851 v 1.868 h -1.85 v -1.868 z m 0,-2.803 h 1.851 v 1.869 h -1.85 v -1.87 z m 0,-2.803 h 1.851 v 1.869 h -1.85 v -1.87 z m 0,-2.803 h 1.851 v 1.869 h -1.85 v -1.87 z m 0,-2.803 h 1.851 v 1.869 h -1.85 v -1.869 z m 2.776,19.62 h 1.851 v 1.87 h -1.85 v -1.87 z m 0,-2.802 h 1.851 v 1.868 h -1.85 v -1.868 z m 0,-2.803 h 1.851 v 1.868 h -1.85 v -1.868 z m 0,-2.803 h 1.851 v 1.868 h -1.85 v -1.868 z m 0,-2.803 h 1.851 v 1.869 h -1.85 v -1.87 z m 0,-2.803 h 1.851 v 1.869 h -1.85 v -1.87 z m 0,-2.803 h 1.851 v 1.869 h -1.85 v -1.87 z m 0,-2.803 h 1.851 v 1.869 h -1.85 v -1.869 z m 2.777,19.62 h 1.85 v 1.87 h -1.85 z m 0,-2.802 h 1.85 v 1.868 h -1.85 z m 0,-2.803 h 1.85 v 1.868 h -1.85 z m 0,-2.803 h 1.85 v 1.868 h -1.85 z m 0,-2.803 h 1.85 v 1.869 h -1.85 v -1.87 z m 0,-2.803 h 1.85 v 1.869 h -1.85 v -1.87 z m 0,-2.803 h 1.85 v 1.869 h -1.85 v -1.87 z m 0,-2.803 h 1.85 v 1.869 h -1.85 z m -11.105,-3.737 h 1.85 v 1.868 h -1.85 z m 2.776,0 h 1.85 v 1.868 h -1.85 z m 2.776,0 h 1.851 v 1.868 h -1.85 v -1.868 z m 2.776,0 h 1.851 v 1.868 h -1.85 v -1.868 z m 2.777,0 h 1.85 v 1.868 h -1.85 z m -2.777,-2.803 h 1.851 v 1.868 h -1.85 v -1.868 z m -2.776,0 h 1.851 v 1.868 h -1.85 v -1.868 z m -2.776,0 h 1.85 v 1.868 h -1.85 z m -2.776,-2.803 h 1.85 v 1.868 h -1.85 z m 2.776,0 h 1.85 v 1.868 h -1.85 z m 2.776,0 h 1.851 v 1.868 h -1.85 v -1.868 z m 2.776,0 h 1.851 v 1.868 h -1.85 v -1.868 z m 2.777,0 h 1.85 v 1.868 h -1.85 z m -2.777,-2.803 h 1.851 v 1.868 h -1.85 v -1.868 z m -2.776,0 h 1.851 v 1.868 h -1.85 v -1.868 z m 0,-2.803 h 1.851 v 1.868 h -1.85 v -1.868 z m -2.776,2.803 h 1.85 v 1.868 h -1.85 z"
         id="path94" />
      <path
         d="M 0,343.228 H 4.711 V 402 H 0 Z"
         id="path96" />
      <path
         d="M 101.289,343.228 H 106 V 402 h -4.711 z"
         id="path98" />
      <path
         d="m 22.378,354.982 h 4.711 V 402 h -4.711 z"
         id="path100" />
      <path
         d="M 4.711,397.298 H 22.378 V 402 H 4.711 Z"
         id="path102" />
    </g>
    <path
       d="m 4.711,392.596 h 17.667 v 4.702 H 4.711 Z"
       fill="#ecf0f1"
       id="path106" />
    <path
       d="m 4.711,387.895 h 17.667 v 4.702 H 4.711 Z"
       fill="#ffffff"
       id="path108" />
    <path
       d="m 4.711,383.193 h 17.667 v 4.702 H 4.711 Z"
       fill="#ecf0f1"
       id="path110" />
    <path
       d="m 4.711,378.491 h 17.667 v 4.702 H 4.711 Z"
       fill="#ffffff"
       id="path112" />
    <path
       d="m 4.711,373.789 h 17.667 v 4.702 H 4.711 Z"
       fill="#ecf0f1"
       id="path114" />
    <path
       d="m 4.711,369.088 h 17.667 v 4.702 H 4.711 Z"
       fill="#ffffff"
       id="path116" />
    <g
       transform="translate(78.911,354.982)"
       id="g134">
      <path
         d="M 0,0 H 4.711 V 47.018 H 0 Z"
         fill="#ffffff"
         id="path118" />
      <path
         d="m 4.711,42.316 h 17.667 v 4.702 H 4.711 Z"
         fill="#ffffff"
         id="path120" />
      <path
         d="m 4.711,37.614 h 17.667 v 4.702 H 4.711 Z"
         fill="#ecf0f1"
         id="path122" />
      <path
         d="m 4.711,32.912 h 17.667 v 4.702 H 4.711 Z"
         fill="#ffffff"
         id="path124" />
      <path
         d="m 4.711,28.211 h 17.667 v 4.702 H 4.711 Z"
         fill="#ecf0f1"
         id="path126" />
      <path
         d="m 4.711,23.509 h 17.667 v 4.702 H 4.711 Z"
         fill="#ffffff"
         id="path128" />
      <path
         d="m 4.711,18.807 h 17.667 v 4.702 H 4.711 Z"
         fill="#ecf0f1"
         id="path130" />
      <path
         d="m 4.711,14.105 h 17.667 v 4.702 H 4.711 Z"
         fill="#ffffff"
         id="path132" />
    </g>
    <path
       d="m 4.711,364.386 h 17.667 v 4.702 H 4.711 Z"
       fill="#ecf0f1"
       id="path136" />
    <path
       d="m 83.622,364.386 h 17.667 v 4.702 H 83.622 Z"
       fill="#ecf0f1"
       id="path138" />
    <path
       d="m 42.4,336.175 h 21.2 l 15.311,18.807 c 0,0 2.582,6.694 2.582,10.041 0,3.347 -2.582,5.24 -2.582,5.24 L 63.6,351.456 H 42.4 l -15.311,18.807 c 0,0 -1.427,-6.054 -1.427,-9.235 0,-3.181 1.427,-6.046 1.427,-6.046 z"
       fill="#ffffff"
       id="path140" />
  </g>
</svg>
