<svg height="600" width="600" xmlns="http://www.w3.org/2000/svg" xmlns:xlink="http://www.w3.org/1999/xlink"><defs><circle id="a" cx="225" cy="225" r="225"/><mask id="b" fill="#fff"><use fill="#fff" fill-rule="evenodd" xlink:href="#a"/></mask></defs><g fill="none" fill-rule="evenodd"><g transform="translate(76 75)"><use fill="#2c97de" xlink:href="#a"/><path d="m28 349h397v131h-397z" fill="#1fce6d" mask="url(#b)"/><g fill="#fff" transform="translate(3 40)"><path d="m16 37h80v22h-80z"/><circle cx="95" cy="45" r="14"/><circle cx="15.5" cy="43.5" r="15.5"/><circle cx="69.5" cy="29.5" r="29.5"/><circle cx="32.5" cy="31.5" r="11.5"/></g><g fill="#fff" transform="translate(341 69)"><path d="m16 37h80v22h-80z"/><circle cx="95" cy="45" r="14"/><circle cx="15.5" cy="43.5" r="15.5"/><circle cx="69.5" cy="29.5" r="29.5"/><circle cx="32.5" cy="31.5" r="11.5"/></g><g fill="#ffe500" stroke="#fff" stroke-linecap="round" stroke-linejoin="round" stroke-width="5"><path d="m72.314 113.5h65.172m-101.486 0h12.283"/><path d="m351.314 142.5h65.172m-91.486 0h12.283"/><path d="m324.592 27h46.045m-58.194 0h2.235"/></g></g><g transform="translate(140 29)"><path d="m88.828 294.03h144.344l66.621 58.807h-277.586zm46.19-234.114h51.964l23.984 22.19h-99.932z" fill="#ecf0f1"/><path d="m153.05 15.534h15.9l28.691 37.724h-73.281z" fill="#fff"/><path d="m123.248 199.719h75.504l12.214-22.191h-99.932z" fill="#fff"/><path d="m16.655 355.056h288.69v32.177h-288.69z" fill="#bdc3c7"/><path d="m0 381.685h124.359v13.315h-124.359zm197.641 0h124.359v13.315h-124.359z" fill="#ecf0f1"/><path d="m161 308.455 47.745 44.382h-95.49z" fill="#fff"/><path d="m113.255 352.837h11.103v28.848h-11.103zm84.386 0h11.103v28.848h-11.103z" fill="#fff"/><path d="m124.359 352.837h73.283v34.396h-73.283z" fill="#bdc3c7"/><path d="m161 318.441 36.641 34.396h-73.281z" fill="#bdc3c7"/><path d="m0 350.618h124.359v4.438h-124.359z" fill="#fff"/><path d="m0 350.618h124.359v4.438h-124.359zm197.641 0h124.359v4.438h-124.359z" fill="#fff"/><path d="m215.407 362.823h33.31v6.657h-33.31zm35.53 0h33.311v6.657h-33.31v-6.657zm-213.185 0h33.31v6.657h-33.31zm35.53 0h33.311v6.657h-33.31v-6.657z" fill="#2b3e51"/><path d="m124.359 392.781h73.283v2.219h-73.283zm0-4.438h73.283v2.219h-73.283z" fill="#fff"/><path d="m124.359 390.562h73.283v2.219h-73.283zm0-4.438h73.283v2.219h-73.283z" fill="#ecf0f1"/><path d="m149.951 355.056c.557-5.607 5.291-9.986 11.049-9.986s10.492 4.38 11.049 9.986h.054v31.068h-22.206v-31.068z" fill="#2b3e51"/><path d="m123.248 237.444h75.503v56.587h-75.503z" fill="#fff"/><path d="m123.248 199.719h75.503v37.725h-75.503z" fill="#ecf0f1"/><path d="m132.131 199.719h57.738v28.848h-57.738zm12.214 53.259h33.31v41.053h-33.31z" fill="#bdc3c7"/><path d="m133.241 88.764h55.517v88.764h-55.517z" fill="#ecf0f1"/><path d="m111.034 82.107h99.931v6.657h-99.931zm19.987 45.491h59.959v4.438h-59.959z" fill="#fff"/><ellipse cx="161" cy="107.626" fill="#2b3e51" rx="13.324" ry="13.315"/><ellipse cx="161" cy="107.626" fill="#fff" rx="12.214" ry="12.205"/><path d="m134.352 53.258h53.297v6.657h-53.297z" fill="#2b3e51"/><path d="m134.352 53.258h2.221v8.876h-2.221zm51.076 0h2.221v8.876h-2.221z" fill="#ecf0f1"/><path d="m148.786 7.767h25.538l-5.552 7.767h-15.544z" fill="#e87e04"/><path d="m161 0 7.772 15.534h-15.544z" fill="#f2c500"/></g></g></svg>