<svg height="600" width="600" xmlns="http://www.w3.org/2000/svg" xmlns:xlink="http://www.w3.org/1999/xlink"><defs><circle id="a" cx="225" cy="225" r="225"/><mask id="b" fill="#fff"><use fill="#fff" fill-rule="evenodd" xlink:href="#a"/></mask></defs><g fill="none" fill-rule="evenodd"><g transform="translate(76 75)"><use fill="#2c97de" xlink:href="#a"/><path d="m28 349h397v131h-397z" fill="#1fce6d" mask="url(#b)"/><g fill="#fff" transform="translate(3 40)"><path d="m16 37h80v22h-80z"/><circle cx="95" cy="45" r="14"/><circle cx="15.5" cy="43.5" r="15.5"/><circle cx="69.5" cy="29.5" r="29.5"/><circle cx="32.5" cy="31.5" r="11.5"/></g><g fill="#fff" transform="translate(341 69)"><path d="m16 37h80v22h-80z"/><circle cx="95" cy="45" r="14"/><circle cx="15.5" cy="43.5" r="15.5"/><circle cx="69.5" cy="29.5" r="29.5"/><circle cx="32.5" cy="31.5" r="11.5"/></g><g fill="#ffe500" stroke="#fff" stroke-linecap="round" stroke-linejoin="round" stroke-width="5"><path d="m72.314 113.5h65.172m-101.486 0h12.283"/><path d="m351.314 142.5h65.172m-91.486 0h12.283"/><path d="m324.592 27h46.045m-58.194 0h2.235"/></g></g><path d="m19.971 374.544c-5.738-11.338-8.971-24.153-8.971-37.72 0-46.295 37.634-83.824 84.058-83.824h411.884c46.424 0 84.058 37.53 84.058 83.824 0 13.567-3.233 26.382-8.971 37.72h-562.059z" fill="#c23824"/><path d="m187.522 301.618h226.957v21.794h-226.957z" fill="#fff"/><path d="m167.348 318.383h267.304v5.029h-267.304zm20.174 5.029h5.043v67.059h-5.043z" fill="#fff"/><path d="m187.522 390.471h5.043v33.529h-5.043z" fill="#94a5a6"/><path d="m409.435 323.412h5.043v67.059h-5.043z" fill="#fff"/><path d="m409.435 390.471h5.043v33.529h-5.043z" fill="#94a5a6"/><path d="m192.565 323.412h16.812v67.059h-16.812z" fill="#ecf0f1"/><path d="m192.565 390.471h16.812v33.529h-16.812z" fill="#7f8c8d"/><path d="m392.623 323.412h16.812v67.059h-16.812z" fill="#ecf0f1"/><path d="m392.623 390.471h16.812v33.529h-16.812z" fill="#7f8c8d"/><path d="m209.377 390.471h58.841v33.529h-58.841zm124.406 0h58.841v33.529h-58.841z" fill="#ecf0f1"/><path d="m209.377 323.412h25.217v67.059h-25.217zm158.029 0h25.217v67.059h-25.217z" fill="#e87e04"/><path d="m32.855 374.544h154.667v49.456h-154.667zm381.623 0h154.667v49.456h-154.667z" fill="#ecf0f1"/><path d="m209.377 390.471h58.841v5.029h-58.841zm124.406 0h58.841v5.029h-58.841z" fill="#bdc3c7"/><path d="m234.595 333.471h33.623v57h-33.623z" fill="#2b3e51"/><path d="m254.769 385.441v-5.029h-6.725v5.03h6.725zm1.681 0h6.725v-10.057h-6.725zm0-11.735h6.725v-6.705h-6.725v6.706zm0-8.382h6.725v-6.706h-6.725zm0-8.382h6.725v-6.706h-6.725zm0-8.383h6.725v-10.058h-6.725v10.06zm-1.681-10.058c0-.925-1.505-1.676-3.362-1.676s-3.363.75-3.363 1.676v6.706h6.725zm0 8.383h-6.725v6.706h6.725zm0 8.382h-6.725v6.705h6.725v-6.706zm0 8.382h-6.725v6.706h6.725zm0 8.383h-6.725v6.706h6.725zm-8.406 13.41v-10.06h-6.725v10.06zm0-46.942h-6.725v10.06h6.725zm0 11.736h-6.725v6.706h6.725zm0 8.382h-6.725v6.706h6.725zm0 8.382h-6.725v6.706h6.725v-6.704zm16.812-33.528h5.043v57h-33.623v-57z" fill="#d55400"/><path d="m333.783 333.471h33.623v57h-33.623z" fill="#2b3e51"/><path d="m353.957 385.441v-5.029h-6.725v5.03h6.725zm1.681 0h6.725v-10.057h-6.725zm0-11.735h6.725v-6.705h-6.725v6.706zm0-8.382h6.725v-6.706h-6.725zm0-8.382h6.725v-6.706h-6.725zm0-8.383h6.725v-10.058h-6.725v10.06zm-1.681-10.058c0-.925-1.505-1.676-3.362-1.676s-3.363.75-3.363 1.676v6.706h6.725zm0 8.383h-6.725v6.706h6.725zm0 8.382h-6.725v6.705h6.725v-6.706zm0 8.382h-6.725v6.706h6.725zm0 8.383h-6.725v6.706h6.725zm-8.406 13.41v-10.06h-6.725v10.06zm0-46.942h-6.725v10.06h6.725zm0 11.736h-6.725v6.706h6.725zm0 8.382h-6.725v6.706h6.725zm0 8.382h-6.725v6.706h6.725v-6.704zm16.812-33.528h5.043v57h-33.623v-57z" fill="#d55400"/><path d="m234.594 323.412h132.812v10.059h-132.812z" fill="#2b3e51"/><path d="m268.217 333.471h65.565v5.029h-65.565zm-33.623-10.059h132.812v1.676h-132.812zm0 5.03h132.812v1.676h-132.812z" fill="#d55400"/><path d="m268.217 338.5h32.783v85.5h-32.783zm32.783 0h32.783v85.5h-32.783z" fill="#e87e04"/><path d="m270.739 378.736h27.74v1.676h-27.74zm0-4.192h27.74v1.677h-27.74zm0-4.19h27.74v1.676h-27.74v-1.677zm0-4.192h27.74v1.677h-27.74zm0-4.191h27.74v1.676h-27.74zm0-4.191h27.74v1.676h-27.74zm0-4.191h27.74v1.676h-27.74zm0-4.192h27.74v1.677h-27.74zm0-4.19h27.74v1.676h-27.74v-1.677zm0-4.192h27.74v1.677h-27.74zm32.783 37.72h27.739v1.677h-27.74v-1.676zm0-4.19h27.739v1.676h-27.74v-1.677zm0-4.192h27.739v1.677h-27.74v-1.677zm0-4.19h27.739v1.676h-27.74v-1.677zm0-4.192h27.739v1.676h-27.74v-1.676zm0-4.191h27.739v1.676h-27.74v-1.676zm0-4.191h27.739v1.676h-27.74v-1.676zm0-4.192h27.739v1.677h-27.74v-1.677zm0-4.19h27.739v1.676h-27.74v-1.677zm0-4.192h27.739v1.677h-27.74v-1.677zm66.405 22.632h20.174v1.677h-20.174zm0-4.19h20.174v1.676h-20.174v-1.677zm0-4.192h20.174v1.677h-20.174zm0-4.191h20.174v1.676h-20.174zm0-4.191h20.174v1.676h-20.174zm0-4.191h20.174v1.676h-20.174zm0-4.192h20.174v1.677h-20.174zm0-4.19h20.174v1.676h-20.174v-1.678zm0-4.192h20.174v1.676h-20.174zm0-4.191h20.174v1.676h-20.174v-1.675zm0 58.676h20.174v1.677h-20.174zm0-4.19h20.174v1.676h-20.174v-1.677zm0-4.192h20.174v1.676h-20.174zm0-4.191h20.174v1.676h-20.174zm0-4.191h20.174v1.676h-20.174zm-158.029-4.192h20.174v1.677h-20.174zm0-4.19h20.174v1.676h-20.174v-1.677zm0-4.192h20.174v1.677h-20.174zm0-4.191h20.174v1.676h-20.174zm0-4.191h20.174v1.676h-20.174zm0-4.191h20.174v1.676h-20.174zm0-4.192h20.174v1.677h-20.174zm0-4.19h20.174v1.676h-20.174v-1.678zm0-4.192h20.174v1.676h-20.174zm0-4.191h20.174v1.676h-20.174v-1.675zm0 58.676h20.174v1.677h-20.174zm0-4.19h20.174v1.676h-20.174v-1.677zm0-4.192h20.174v1.676h-20.174zm0-4.191h20.174v1.676h-20.174zm0-4.191h20.174v1.676h-20.174z" fill="#2b3e51"/><path d="m98.42 305.809h43.71v37.721h-43.71z" fill="#2b3e51"/><path d="m90.015 301.618h60.521l16.812 8.382h-94.145z" fill="#e94b35"/><path d="m459.87 305.809h43.71v37.721h-43.71z" fill="#2b3e51"/><path d="m451.465 301.618h60.521l16.812 8.382h-94.145z" fill="#e94b35"/></g></svg>