<svg height="600" width="600" xmlns="http://www.w3.org/2000/svg" xmlns:xlink="http://www.w3.org/1999/xlink"><defs><circle id="a" cx="225" cy="225" r="225"/><path id="b" d="m34.146 175.495c0-8.077-6.552-14.625-14.634-14.625s-14.634 6.548-14.634 14.625h-4.878v-175.495h39.024v175.495z"/><path id="c" d="m17.073 175.495c0-8.077-3.276-14.625-7.317-14.625s-7.317 6.548-7.317 14.625h-2.439v-175.495h19.512v175.495z"/><path id="d" d="m17.073 175.495c0-8.077-3.276-14.625-7.317-14.625s-7.317 6.548-7.317 14.625h-2.439v-175.495h19.512v175.495z"/><path id="e" d="m34.146 175.495c0-8.077-6.552-14.625-14.634-14.625s-14.634 6.548-14.634 14.625h-4.878v-175.495h39.024v175.495z"/><path id="f" d="m17.073 175.495c0-8.077-3.276-14.625-7.317-14.625s-7.317 6.548-7.317 14.625h-2.439v-175.495h19.512v175.495z"/><path id="g" d="m17.073 175.495c0-8.077-3.276-14.625-7.317-14.625s-7.317 6.548-7.317 14.625h-2.439v-175.495h19.512v175.495z"/><mask id="h" fill="#fff"><use fill="#fff" fill-rule="evenodd" xlink:href="#a"/></mask><mask id="i" fill="#fff"><use fill="#fff" fill-rule="evenodd" xlink:href="#b"/></mask><mask id="j" fill="#fff"><use fill="#fff" fill-rule="evenodd" xlink:href="#c"/></mask><mask id="k" fill="#fff"><use fill="#fff" fill-rule="evenodd" xlink:href="#d"/></mask><mask id="l" fill="#fff"><use fill="#fff" fill-rule="evenodd" xlink:href="#e"/></mask><mask id="m" fill="#fff"><use fill="#fff" fill-rule="evenodd" xlink:href="#f"/></mask><mask id="n" fill="#fff"><use fill="#fff" fill-rule="evenodd" xlink:href="#g"/></mask></defs><g fill="none" fill-rule="evenodd"><g transform="translate(76 75)"><use fill="#2c97de" xlink:href="#a"/><path d="m28 349h397v131h-397z" fill="#1fce6d" mask="url(#h)"/><g fill="#fff" transform="translate(3 40)"><path d="m16 37h80v22h-80z"/><circle cx="95" cy="45" r="14"/><circle cx="15.5" cy="43.5" r="15.5"/><circle cx="69.5" cy="29.5" r="29.5"/><circle cx="32.5" cy="31.5" r="11.5"/></g><g fill="#fff" transform="translate(341 69)"><path d="m16 37h80v22h-80z"/><circle cx="95" cy="45" r="14"/><circle cx="15.5" cy="43.5" r="15.5"/><circle cx="69.5" cy="29.5" r="29.5"/><circle cx="32.5" cy="31.5" r="11.5"/></g><g fill="#ffe500" stroke="#fff" stroke-linecap="round" stroke-linejoin="round" stroke-width="5"><path d="m72.314 113.5h65.172m-101.486 0h12.283"/><path d="m351.314 142.5h65.172m-91.486 0h12.283"/><path d="m324.592 27h46.045m-58.194 0h2.235"/></g></g><path d="m301 61.312 13.414 112.122h-26.83z" fill="#33495f"/><path d="m301 61.312 26.829 112.122h-13.415zm0 0-13.415 112.122h-13.415z" fill="#2b3e51"/><path d="m302.463 39.862v18.916a2.923 2.923 0 0 1 -1.464 5.458 2.926 2.926 0 0 1 -1.463-5.458v-18.916h-5.854v-2.925h5.854v-6.337h2.927v6.337h5.853v2.925z" fill="#2b3e51"/><path d="m174.17 238.268h253.66v156.483h-253.66z" fill="#bdc3c7"/><path d="m193.683 307.004h214.634v3.9h-214.634zm107.317-155.02 74.634 86.408h-149.268z" fill="#fff"/><g transform="translate(427.829 162.708)"><use fill="#ecf0f1" xlink:href="#b"/><ellipse cx="19.512" cy="175.495" fill="#fff" mask="url(#i)" rx="17.073" ry="17.062"/></g><g transform="translate(466.853 162.708)"><use fill="#bdc3c7" xlink:href="#c"/><ellipse cx="9.756" cy="175.495" fill="#fff" mask="url(#j)" rx="8.537" ry="17.062"/></g><g transform="translate(408.317 162.708)"><use fill="#94a5a6" xlink:href="#d"/><ellipse cx="9.756" cy="175.495" fill="#fff" mask="url(#k)" rx="8.537" ry="17.062"/></g><path d="m437.892 201.22a6.344 6.344 0 0 1 -.307-1.95c0-4.308 4.368-7.8 9.756-7.8s9.756 3.492 9.756 7.8c0 .673-.107 1.326-.307 1.95h.307v29.249h-19.512v-29.25h.307z" fill="#2b3e51"/><path d="m446.365 200.245h1.951v31.199h-1.951z" fill="#fff"/><path d="m437.585 199.27c0-5.385 4.368-9.75 9.756-9.75s9.756 4.365 9.756 9.75h-1.951c0-4.308-3.494-7.8-7.805-7.8a7.802 7.802 0 0 0 -7.805 7.8zm0 0h19.512v33.149h-19.512v-33.15zm1.951 1.95v29.249h15.61v-29.25h-15.61z" fill="#fff"/><path d="m472.831 201.22a15.296 15.296 0 0 1 -.123-1.95c0-4.308 1.747-7.8 3.902-7.8s3.902 3.492 3.902 7.8c0 .673-.042 1.326-.122 1.95h.122v29.249h-7.804v-29.25h.123z" fill="#2b3e51"/><path d="m476.122 200.245h1v31.199h-1z" fill="#fff"/><path d="m471.732 199.27c0-5.385 2.184-9.75 4.878-9.75s4.878 4.365 4.878 9.75h-.976c0-4.308-1.747-7.8-3.902-7.8s-3.902 3.492-3.902 7.8zm0 0h9.756v33.149h-9.756v-33.15zm.976 1.95v29.249h7.804v-29.25h-7.804z" fill="#fff"/><path d="m414.294 201.22a15.296 15.296 0 0 1 -.123-1.95c0-4.308 1.747-7.8 3.902-7.8s3.902 3.492 3.902 7.8c0 .673-.042 1.326-.122 1.95h.122v29.249h-7.804v-29.25h.123z" fill="#2b3e51"/><path d="m417.585 200.245h1v31.199h-1z" fill="#fff"/><path d="m413.195 199.27c0-5.385 2.184-9.75 4.878-9.75s4.878 4.365 4.878 9.75h-.976c0-4.308-1.747-7.8-3.902-7.8s-3.902 3.492-3.902 7.8zm0 0h9.756v33.149h-9.756v-33.15zm.976 1.95v29.249h7.804v-29.25h-7.804z" fill="#fff"/><path d="m447.342 45.712 19.512 112.121h-39.025z" fill="#33495f"/><path d="m447.342 45.712 39.024 112.121h-19.512zm0 0-19.513 112.121h-19.512z" fill="#2b3e51"/><path d="m393.683 157.833h107.317v4.875h-107.317zm55.122-133.571v18.916a2.923 2.923 0 0 1 -1.463 5.458 2.926 2.926 0 0 1 -1.464-5.458v-18.916h-5.854v-2.925h5.854v-6.337h2.927v6.337h5.854v2.925zm35.61 313.941h1.951v55.573h-1.951zm-76.098 0h1.951v55.573h-1.951z" fill="#2b3e51"/><g transform="translate(135.146 162.708)"><use fill="#ecf0f1" xlink:href="#e"/><ellipse cx="19.512" cy="175.495" fill="#fff" mask="url(#l)" rx="17.073" ry="17.062"/></g><g transform="translate(174.17 162.708)"><use fill="#94a5a6" xlink:href="#f"/><ellipse cx="9.756" cy="175.495" fill="#fff" mask="url(#m)" rx="8.537" ry="17.062"/></g><g transform="translate(115.634 162.708)"><use fill="#bdc3c7" xlink:href="#g"/><ellipse cx="9.756" cy="175.495" fill="#fff" mask="url(#n)" rx="8.537" ry="17.062"/></g><path d="m145.209 201.22a6.344 6.344 0 0 1 -.307-1.95c0-4.308 4.368-7.8 9.756-7.8s9.756 3.492 9.756 7.8c0 .673-.107 1.326-.307 1.95h.307v29.249h-19.512v-29.25h.307z" fill="#2b3e51"/><path d="m153.682 200.245h1.951v31.199h-1.951z" fill="#fff"/><path d="m144.902 199.27c0-5.385 4.368-9.75 9.756-9.75s9.756 4.365 9.756 9.75h-1.951c0-4.308-3.494-7.8-7.805-7.8a7.802 7.802 0 0 0 -7.805 7.8zm0 0h19.512v33.149h-19.512v-33.15zm1.951 1.95v29.249h15.61v-29.25h-15.61z" fill="#fff"/><path d="m180.148 201.22a15.296 15.296 0 0 1 -.123-1.95c0-4.308 1.747-7.8 3.902-7.8s3.902 3.492 3.902 7.8c0 .673-.042 1.326-.122 1.95h.122v29.249h-7.804v-29.25h.123z" fill="#2b3e51"/><path d="m183.439 200.245h1v31.199h-1z" fill="#fff"/><path d="m179.049 199.27c0-5.385 2.184-9.75 4.878-9.75s4.878 4.365 4.878 9.75h-.976c0-4.308-1.747-7.8-3.902-7.8s-3.902 3.492-3.902 7.8zm0 0h9.756v33.149h-9.756v-33.15zm.976 1.95v29.249h7.804v-29.25h-7.804z" fill="#fff"/><path d="m121.611 201.22a15.296 15.296 0 0 1 -.123-1.95c0-4.308 1.747-7.8 3.902-7.8s3.902 3.492 3.902 7.8c0 .673-.042 1.326-.122 1.95h.122v29.249h-7.804v-29.25h.123z" fill="#2b3e51"/><path d="m124.902 200.245h1v31.199h-1z" fill="#fff"/><path d="m120.512 199.27c0-5.385 2.184-9.75 4.878-9.75s4.878 4.365 4.878 9.75h-.976c0-4.308-1.747-7.8-3.902-7.8s-3.902 3.492-3.902 7.8zm0 0h9.756v33.149h-9.756v-33.15zm.976 1.95v29.249h7.804v-29.25h-7.804z" fill="#fff"/><path d="m154.659 45.712 19.512 112.121h-39.025z" fill="#33495f"/><path d="m154.659 45.712 39.024 112.121h-19.513zm0 0-19.513 112.121h-19.512z" fill="#2b3e51"/><path d="m101 157.833h107.317v4.875h-107.317zm55.122-133.571v18.916a2.923 2.923 0 0 1 -1.463 5.458 2.926 2.926 0 0 1 -1.464-5.458v-18.916h-5.854v-2.925h5.854v-6.337h2.927v6.337h5.854v2.925zm35.61 313.941h1.951v55.573h-1.951zm-76.098 0h1.951v55.573h-1.951z" fill="#2b3e51"/><path d="m175.693 261.667 125.307-120.407v29.249l-107.317 102.371h-19.513v-11.213h1.522z" fill="#7f8c8d"/><path d="m174.17 263.13 126.83-121.871v9.75l-126.83 121.87z" fill="#2b3e51"/><path d="m174.17 258.255 126.83-121.871v4.875l-126.83 121.87z" fill="#fff"/><path d="m426.307 261.667-125.307-120.407v29.249l107.317 102.371h19.512v-11.213z" fill="#7f8c8d"/><path d="m427.83 263.13-126.83-121.871v9.75l126.83 121.87z" fill="#2b3e51"/><path d="m427.83 258.255-126.83-121.871v4.875l126.83 121.87z" fill="#fff"/><path d="m313.195 296.766v-36.074h-24.39v36.074h-2.44v-36.074c0-8.076 6.55-14.624 14.628-14.624s14.627 6.548 14.627 14.624h.014v36.074zm-24.391-36.074h24.378c0-6.73-5.457-12.187-12.189-12.187s-12.19 5.457-12.19 12.187z" fill="#ecf0f1"/><path d="m318.561 347.952v46.889h-35.122v-55.663h.007a17.869 17.869 0 0 1 -.007-.488c0-9.692 7.862-17.55 17.561-17.55s17.561 7.858 17.561 17.55c0 .163-.002.326-.007.488h.007zm0 0h4.39v46.94h-43.901v-85.938h4.39v16.572c4.005-5.327 10.38-8.773 17.561-8.773 7.18 0 13.556 3.446 17.561 8.773zm4.39-8.632v8.632z" fill="#fff"/><path d="m283.45 339.32a17.854 17.854 0 0 1 -.011-.63c0-9.692 7.862-17.55 17.561-17.55s17.561 7.858 17.561 17.55c0 .21-.004.42-.011.63h.011v55.573h-35.122v-55.573z" fill="#ecf0f1"/><path d="m240.178 262.642a12.273 12.273 0 0 1 -.155-1.95c0-6.73 5.457-12.187 12.19-12.187 6.731 0 12.188 5.457 12.188 12.188 0 .663-.053 1.315-.155 1.95h.17v29.249h-24.381v-29.25h.142z" fill="#2b3e51"/><path d="m253.201 273.368v8.286h11.214v-8.286zm-1.95 0h-11.214v8.286h11.214zm1.95 18.524h11.214v-8.288h-11.214zm-1.95 0v-8.288h-11.214v8.288zm1.95-29.25v8.775h11.214v-8.775zm-1.95 0h-11.214v8.775h11.214zm15.588-1.95h.014v33.15h-29.254v-32.505c-.01-.214-.014-.429-.014-.644 0-8.077 6.549-14.625 14.627-14.625 8.079 0 14.627 6.548 14.627 14.625zm-2.438 0c0-6.73-5.457-12.187-12.189-12.187s-12.19 5.457-12.19 12.188h24.38z" fill="#ecf0f1"/><path d="m224.081 339.177a12.273 12.273 0 0 1 -.155-1.95c0-6.73 5.457-12.187 12.19-12.187 6.731 0 12.188 5.457 12.188 12.188 0 .663-.053 1.315-.155 1.95h.17v29.249h-24.381v-29.25h.142z" fill="#2b3e51"/><path d="m237.104 349.903v8.286h11.214v-8.286zm-1.95 0h-11.214v8.286h11.214zm1.95 18.524h11.214v-8.288h-11.214zm-1.95 0v-8.288h-11.214v8.288zm1.95-29.25v8.775h11.214v-8.775zm-1.95 0h-11.214v8.775h11.214zm15.588-1.95h.014v33.15h-29.254v-32.505c-.01-.214-.014-.429-.014-.644 0-8.077 6.549-14.625 14.627-14.625 8.079 0 14.627 6.548 14.627 14.625zm-2.438 0c0-6.73-5.457-12.187-12.189-12.187s-12.19 5.457-12.19 12.188h24.38z" fill="#ecf0f1"/><path d="m353.837 339.177a12.273 12.273 0 0 1 -.155-1.95c0-6.73 5.457-12.187 12.19-12.187 6.731 0 12.188 5.457 12.188 12.188 0 .663-.053 1.315-.155 1.95h.17v29.249h-24.381v-29.25h.142z" fill="#2b3e51"/><path d="m366.86 349.903v8.286h11.214v-8.286zm-1.95 0h-11.214v8.286h11.214zm1.95 18.524h11.214v-8.288h-11.214zm-1.95 0v-8.288h-11.214v8.288zm1.95-29.25v8.775h11.214v-8.775zm-1.95 0h-11.214v8.775h11.214zm15.588-1.95h.014v33.15h-29.254v-32.505c-.01-.214-.014-.429-.014-.644 0-8.077 6.549-14.625 14.627-14.625 8.079 0 14.627 6.548 14.627 14.625zm-2.438 0c0-6.73-5.457-12.187-12.189-12.187s-12.19 5.457-12.19 12.188h24.38z" fill="#ecf0f1"/><path d="m337.74 262.642a12.273 12.273 0 0 1 -.155-1.95c0-6.73 5.457-12.187 12.19-12.187 6.731 0 12.189 5.457 12.189 12.188 0 .663-.053 1.315-.156 1.95h.17v29.249h-24.379v-29.25z" fill="#2b3e51"/><path d="m350.762 273.368v8.286h11.214v-8.286zm-1.95 0h-11.214v8.286h11.214zm1.95 18.524h11.214v-8.288h-11.214zm-1.95 0v-8.288h-11.214v8.288zm1.95-29.25v8.775h11.214v-8.775zm-1.95 0h-11.214v8.775h11.214zm15.588-1.95h.014v33.15h-29.254v-32.505c-.01-.214-.014-.429-.014-.644 0-8.077 6.549-14.625 14.627-14.625 8.079 0 14.627 6.548 14.627 14.625zm-2.438 0c0-6.73-5.457-12.187-12.189-12.187s-12.19 5.457-12.19 12.188h24.38z" fill="#ecf0f1"/><path d="m193.683 280.68h214.634v3.412h-214.634zm0 16.087h214.634v3.412h-214.634z" fill="#2c97de"/><path d="m401.976 284.092h2.927v12.675h-2.927zm-5.854 0h2.927v12.675h-2.927zm-5.854 0h2.927v12.675h-2.927zm-5.853 0h2.927v12.675h-2.927zm-5.854 0h2.927v12.675h-2.927zm-5.854 0h2.927v12.675h-2.927zm-5.853 0h2.927v12.675h-2.927zm-5.854 0h2.927v12.675h-2.927zm-5.854 0h2.927v12.675h-2.927zm-5.853 0h2.927v12.675h-2.927zm-5.854 0h2.927v12.675h-2.927zm-5.854 0h2.927v12.675h-2.927zm-5.853 0h2.927v12.675h-2.927zm-5.854 0h2.927v12.675h-2.927zm-5.854 0h2.927v12.675h-2.927zm-5.853 0h2.927v12.675h-2.927zm-5.854 0h2.927v12.675h-2.927zm-5.854 0h2.927v12.675h-2.927zm-5.853 0h2.927v12.675h-2.927zm-5.854 0h2.927v12.675h-2.927zm-5.853 0h2.926v12.675h-2.926zm-5.854 0h2.927v12.675h-2.927zm-5.854 0h2.927v12.675h-2.927zm-5.853 0h2.926v12.675h-2.925v-12.675zm-5.854 0h2.927v12.675h-2.927zm-5.854 0h2.927v12.675h-2.927zm-5.853 0h2.926v12.675h-2.926zm-5.854 0h2.927v12.675h-2.927zm-5.854 0h2.927v12.675h-2.927zm-5.853 0h2.926v12.675h-2.926zm-5.854 0h2.927v12.675h-2.927zm-5.854 0h2.927v12.675h-2.926v-12.675zm-5.853 0h2.926v12.675h-2.926zm-5.854 0h2.927v12.675h-2.927zm-5.854 0h2.927v12.675h-2.927zm-5.853 0h2.925v12.675h-2.925z" fill="#fff"/><g fill="#2b3e51"><path d="m115.634 394.263h3.902v29.25h-3.902zm78.049 0h3.902v29.25h-3.902zm38.536 0h3.903v29.25h-3.903z"/><path d="m486.366 394.263h-3.902v29.25h3.902zm-78.049 0h-3.902v29.25h3.902zm-38.536 0h-3.903v29.25h3.903z"/></g><path d="m115.634 375.251h160.976v3.412h-160.976zm0 16.087h160.976v3.412h-160.976z" fill="#2c97de"/><path d="m267.829 378.663h2.927v12.675h-2.927zm5.854 0h2.927v12.675h-2.927zm-11.708 0h2.927v12.675h-2.927zm-5.853 0h2.927v12.675h-2.927zm-5.854 0h2.927v12.675h-2.927zm-5.854 0h2.927v12.675h-2.927zm-5.853 0h2.927v12.675h-2.927zm-5.854 0h2.927v12.675h-2.927zm-5.853 0h2.926v12.675h-2.926zm-5.854 0h2.927v12.675h-2.927zm-5.854 0h2.927v12.675h-2.927zm-5.853 0h2.926v12.675h-2.925v-12.675zm-5.854 0h2.927v12.675h-2.927zm-5.854 0h2.927v12.675h-2.927zm-5.853 0h2.926v12.675h-2.926zm-5.854 0h2.927v12.675h-2.927zm-5.854 0h2.927v12.675h-2.927zm-5.853 0h2.926v12.675h-2.926zm-5.854 0h2.927v12.675h-2.927zm-5.854 0h2.927v12.675h-2.926v-12.675zm-5.853 0h2.926v12.675h-2.926zm-5.854 0h2.927v12.675h-2.927zm-5.854 0h2.927v12.675h-2.927zm-5.853 0h2.926v12.675h-2.926zm-5.854 0h2.927v12.675h-2.928v-12.675zm-5.854 0h2.927v12.675h-2.927zm-5.853 0h2.926v12.675h-2.926zm-5.854 0h2.927v12.675h-2.927z" fill="#fff"/><path d="m325.39 375.251h160.976v3.412h-160.976zm0 16.087h160.976v3.412h-160.976z" fill="#2c97de"/><path d="m477.585 378.663h2.927v12.675h-2.927zm5.854 0h2.927v12.675h-2.927zm-11.708 0h2.927v12.675h-2.927zm-5.853 0h2.927v12.675h-2.927zm-5.854 0h2.927v12.675h-2.927zm-5.854 0h2.927v12.675h-2.927zm-5.853 0h2.927v12.675h-2.927zm-5.854 0h2.927v12.675h-2.927zm-5.853 0h2.926v12.675h-2.926zm-5.854 0h2.927v12.675h-2.927zm-5.854 0h2.927v12.675h-2.927zm-5.853 0h2.926v12.675h-2.925v-12.675zm-5.854 0h2.927v12.675h-2.927zm-5.854 0h2.927v12.675h-2.927zm-5.853 0h2.926v12.675h-2.926zm-5.854 0h2.927v12.675h-2.927zm-5.854 0h2.927v12.675h-2.927zm-5.853 0h2.926v12.675h-2.926zm-5.854 0h2.927v12.675h-2.927zm-5.854 0h2.927v12.675h-2.926v-12.675zm-5.853 0h2.926v12.675h-2.926zm-5.854 0h2.927v12.675h-2.927zm-5.854 0h2.927v12.675h-2.927zm-5.853 0h2.926v12.675h-2.926zm-5.854 0h2.927v12.675h-2.928v-12.675zm-5.854 0h2.927v12.675h-2.927zm-5.853 0h2.926v12.675h-2.926zm-5.854 0h2.927v12.675h-2.927z" fill="#fff"/><path d="m133.195 338.203h5.854v85.31h-5.854zm37.073 0h5.854v85.31h-5.854zm255.61 0h5.854v85.31h-5.854zm37.073 0h5.854v85.31h-5.854z" fill="#2b3e51"/><path d="m276.61 394.75h48.78v4.875h-48.78z" fill="#33495f"/><path d="m274.171 399.625h53.659v4.875h-53.659z" fill="#2b3e51"/><path d="m271.732 404.5h58.537v4.875h-58.537z" fill="#33495f"/><path d="m269.293 409.375h63.415v4.875h-63.415z" fill="#2b3e51"/><path d="m266.854 414.249h68.293v4.875h-68.293z" fill="#33495f"/><path d="m264.415 419.124h73.171v4.875h-73.171z" fill="#2b3e51"/></g></svg>