<svg height="600" width="600" xmlns="http://www.w3.org/2000/svg" xmlns:xlink="http://www.w3.org/1999/xlink"><defs><circle id="a" cx="225" cy="225" r="225"/><mask id="b" fill="#fff"><use fill="#fff" fill-rule="evenodd" xlink:href="#a"/></mask></defs><g fill="none" fill-rule="evenodd"><g transform="translate(76 75)"><use fill="#2c97de" xlink:href="#a"/><path d="m28 349h397v131h-397z" fill="#1fce6d" mask="url(#b)"/><g fill="#fff" transform="translate(3 40)"><path d="m16 37h80v22h-80z"/><circle cx="95" cy="45" r="14"/><circle cx="15.5" cy="43.5" r="15.5"/><circle cx="69.5" cy="29.5" r="29.5"/><circle cx="32.5" cy="31.5" r="11.5"/></g><g fill="#fff" transform="translate(341 69)"><path d="m16 37h80v22h-80z"/><circle cx="95" cy="45" r="14"/><circle cx="15.5" cy="43.5" r="15.5"/><circle cx="69.5" cy="29.5" r="29.5"/><circle cx="32.5" cy="31.5" r="11.5"/></g><g fill="#ffe500" stroke="#fff" stroke-linecap="round" stroke-linejoin="round" stroke-width="5"><path d="m72.314 113.5h65.172m-101.486 0h12.283"/><path d="m351.314 142.5h65.172m-91.486 0h12.283"/><path d="m324.592 27h46.045m-58.194 0h2.235"/></g></g><g transform="translate(279.244 40)"><path d="m0 83.184h44.512v83.184h-44.512z" fill="#ecf0f1"/><path d="m22.256 83.184 11.612 8.705h-23.224zm-22.256 43.526h44.512v11.607h-44.512z" fill="#fff"/><path d="m.968 138.317h42.576v3.869h-42.576z" fill="#94a5a6"/><path d="m10.644 91.89h23.224l5.806 34.82h-34.836z" fill="#fff"/><path d="m14.515 101.562a2.903 2.903 0 0 1 5.806 0v25.148h-5.806zm10.644 0a2.903 2.903 0 0 1 5.806 0v25.148h-5.806z" fill="#2c97de"/><path d="m10.644 55.134h23.224v28.05h-23.224z" fill="#fff"/><path d="m10.064 51.264h24.384l2.323 7.739h-29.031z" fill="#ecf0f1"/><ellipse cx="22.256" cy="65.773" fill="#33495f" rx="5.806" ry="5.804"/><g fill="#fff"><path d="m20.32 19.345h1.936l-9.677 31.92h-1.935zm1.936 0h1.935l9.677 31.92h-1.936z"/><path d="m21.288 19.345h1.935v31.919h-1.935zm0-19.345h1.935v19.345h-1.935z"/><path d="m14.515 30.952h15.482v1.935h-15.482zm0-25.148h15.482v1.935h-15.482zm-.968 31.919h17.418v1.935h-17.418zm-1.935 6.771h21.288v1.935h-21.288z"/></g></g><path d="m301.5 167.678 116.117 130.58h-232.235z" fill="#fff"/><path d="m301.5 174.422 111.28 123.808h-222.56z" fill="#c23824"/><path d="m301.5 182.187 105.473 116.07h-210.947z" fill="#ecf0f1"/><path d="m369.923 269.24h-21.206l-17.488-19.346h21.15l17.544 19.345zm7.895 8.705 17.544 19.345h-21.288l-17.488-19.345zm-144.74-8.706 17.544-19.345h21.15l-17.489 19.345h-21.206zm-7.896 8.706h21.232l-17.488 19.345h-21.288zm119.301-36.756h-21.123l-17.487-19.345h21.067l17.544 19.345zm-85.966 0 17.544-19.345h21.067l-17.487 19.345zm60.527-28.05h-35.088l17.544-19.346z" fill="#2c97de"/><g transform="translate(137 83.526)"><path d="m0 253.421h48.382v87.053h-48.382z" fill="#fff"/><path d="m0 191.516h48.382v30.952h-48.382z" fill="#ecf0f1"/><path d="m3.87 184.746h40.642l3.87 6.77h-48.382z" fill="#fff"/><path d="m0 214.73h48.382v38.69h-48.382zm3.871-68.675h40.641v38.69h-40.641z" fill="#ecf0f1"/><path d="m8.709 169.27c0-3.206 2.6-5.804 5.806-5.804a5.805 5.805 0 0 1 5.806 5.804v15.476h-11.612z" fill="#2c97de"/><path d="m8.709 237.945c0-3.206 2.6-5.804 5.806-5.804a5.805 5.805 0 0 1 5.806 5.804v15.476h-11.612zm19.353 0c0-3.206 2.6-5.804 5.806-5.804a5.805 5.805 0 0 1 5.806 5.804v15.476h-11.612z" fill="#fff"/><path d="m28.062 169.27c0-3.206 2.6-5.804 5.806-5.804a5.805 5.805 0 0 1 5.806 5.804v15.476h-11.612z" fill="#2c97de"/><path d="m0 253.421h8.709v87.053h-8.709zm13.547 0h8.709v87.053h-8.709zm13.547 0h8.709v87.053h-8.709zm12.58 0h8.709v87.053h-8.709z" fill="#ecf0f1"/><path d="m0 253.421h48.382v2.902h-48.382z" fill="#bdc3c7"/><path d="m10.644 191.516h7.741v28.05h-7.741zm19.353 0h7.741v28.05h-7.741zm-21.288-9.653h11.612v9.653h-11.612zm19.353 0h11.612v9.653h-11.612z" fill="#2c97de"/><path d="m1.935 83.184h44.512v43.526h-44.512z" fill="#ecf0f1"/><path d="m8.709 180.877h11.612v3.869h-11.612zm19.353 0h11.612v3.869h-11.612zm-3.87-34.822 20.32 14.51h-40.642zm0-62.871 11.61 8.705h-23.222zm-22.258 43.526h44.512v11.607h-44.511z" fill="#fff"/><path d="m3.871 142.186h40.641v3.869h-40.641z" fill="#bdc3c7"/><path d="m2.903 138.317h42.576v3.869h-42.576z" fill="#94a5a6"/><path d="m12.58 91.89h23.223l5.806 34.82h-34.835z" fill="#fff"/><path d="m16.45 101.562a2.903 2.903 0 0 1 5.806 0v25.148h-5.806zm10.644 0a2.903 2.903 0 0 1 5.806 0v25.148h-5.806z" fill="#2c97de"/><path d="m12.579 55.134h23.224v28.05h-23.224z" fill="#fff"/><path d="m11.999 51.264h24.385l2.322 7.739h-29.03z" fill="#ecf0f1"/><ellipse cx="24.191" cy="65.773" fill="#33495f" rx="5.806" ry="5.804"/><g fill="#fff"><path d="m22.256 19.345h1.935l-9.676 31.92h-1.936zm1.935 0h1.935l9.677 31.92h-1.935z"/><path d="m23.224 19.345h1.935v31.919h-1.935zm0-19.345h1.935v19.345h-1.935z"/><path d="m16.45 30.952h15.482v1.935h-15.482zm0-25.148h15.482v1.935h-15.482zm-.968 31.919h17.418v1.935h-17.418zm-1.935 6.771h21.288v1.935h-21.288z"/></g></g><g transform="translate(417.618 83.526)"><path d="m0 253.421h48.382v87.053h-48.382z" fill="#fff"/><path d="m0 191.516h48.382v30.952h-48.382z" fill="#ecf0f1"/><path d="m3.87 184.746h40.642l3.87 6.77h-48.382z" fill="#fff"/><path d="m0 214.73h48.382v38.69h-48.382zm3.871-68.675h40.641v38.69h-40.641z" fill="#ecf0f1"/><path d="m8.709 169.27c0-3.206 2.6-5.804 5.806-5.804a5.805 5.805 0 0 1 5.806 5.804v15.476h-11.612z" fill="#2c97de"/><path d="m8.709 237.945c0-3.206 2.6-5.804 5.806-5.804a5.805 5.805 0 0 1 5.806 5.804v15.476h-11.612zm19.353 0c0-3.206 2.6-5.804 5.806-5.804a5.805 5.805 0 0 1 5.806 5.804v15.476h-11.612z" fill="#fff"/><path d="m28.062 169.27c0-3.206 2.6-5.804 5.806-5.804a5.805 5.805 0 0 1 5.806 5.804v15.476h-11.612z" fill="#2c97de"/><path d="m0 253.421h8.709v87.053h-8.709zm13.547 0h8.709v87.053h-8.709zm13.547 0h8.709v87.053h-8.709zm12.58 0h8.709v87.053h-8.709z" fill="#ecf0f1"/><path d="m0 253.421h48.382v2.902h-48.382z" fill="#bdc3c7"/><path d="m10.644 191.516h7.741v28.05h-7.741zm19.353 0h7.741v28.05h-7.741zm-21.288-9.653h11.612v9.653h-11.612zm19.353 0h11.612v9.653h-11.612z" fill="#2c97de"/><path d="m1.935 83.184h44.512v43.526h-44.512z" fill="#ecf0f1"/><path d="m8.709 180.877h11.612v3.869h-11.612zm19.353 0h11.612v3.869h-11.612zm-3.87-34.822 20.32 14.51h-40.642zm0-62.871 11.61 8.705h-23.222zm-22.258 43.526h44.512v11.607h-44.511z" fill="#fff"/><path d="m3.871 142.186h40.641v3.869h-40.641z" fill="#bdc3c7"/><path d="m2.903 138.317h42.576v3.869h-42.576z" fill="#94a5a6"/><path d="m12.58 91.89h23.223l5.806 34.82h-34.835z" fill="#fff"/><path d="m16.45 101.562a2.903 2.903 0 0 1 5.806 0v25.148h-5.806zm10.644 0a2.903 2.903 0 0 1 5.806 0v25.148h-5.806z" fill="#2c97de"/><path d="m12.579 55.134h23.224v28.05h-23.224z" fill="#fff"/><path d="m11.999 51.264h24.385l2.322 7.739h-29.03z" fill="#ecf0f1"/><ellipse cx="24.191" cy="65.773" fill="#33495f" rx="5.806" ry="5.804"/><g fill="#fff"><path d="m22.256 19.345h1.935l-9.676 31.92h-1.936zm1.935 0h1.935l9.677 31.92h-1.935z"/><path d="m23.224 19.345h1.935v31.919h-1.935zm0-19.345h1.935v19.345h-1.935z"/><path d="m16.45 30.952h15.482v1.935h-15.482zm0-25.148h15.482v1.935h-15.482zm-.968 31.919h17.418v1.935h-17.418zm-1.935 6.771h21.288v1.935h-21.288z"/></g></g><path d="m185.382 342.75h232.236v81.25h-232.236z" fill="#bdc3c7"/><path d="m183.447 298.257h236.106v44.494h-236.106z" fill="#ecf0f1"/><path d="m260.859 342.75h9.676v81.25h-9.676z" fill="#fff"/><path d="m202.8 327.275h9.676v96.352h-9.676z" fill="#ecf0f1"/><path d="m332.465 342.75h9.676v81.25h-9.676z" fill="#fff"/><path d="m390.523 327.275h9.677v96.352h-9.677z" fill="#ecf0f1"/><path d="m301.5 298.257 40.641 29.018h-81.281zm-40.641 29.018h81.282v15.476h-81.282z" fill="#fff"/><path d="m282.147 367.899h38.706v56.101h-38.706zm69.671 0h29.029v56.101h-29.029zm-129.665 0h29.029v56.101h-29.029z" fill="#33495f"/></g></svg>