<svg height="600" width="600" xmlns="http://www.w3.org/2000/svg" xmlns:xlink="http://www.w3.org/1999/xlink"><defs><circle id="a" cx="225" cy="225" r="225"/><mask id="b" fill="#fff"><use fill="#fff" fill-rule="evenodd" xlink:href="#a"/></mask></defs><g fill="none" fill-rule="evenodd"><g transform="translate(76 75)"><use fill="#2c97de" xlink:href="#a"/><path d="m28 349h397v131h-397z" fill="#1fce6d" mask="url(#b)"/><g fill="#fff" transform="translate(3 40)"><path d="m16 37h80v22h-80z"/><circle cx="95" cy="45" r="14"/><circle cx="15.5" cy="43.5" r="15.5"/><circle cx="69.5" cy="29.5" r="29.5"/><circle cx="32.5" cy="31.5" r="11.5"/></g><g fill="#fff" transform="translate(341 69)"><path d="m16 37h80v22h-80z"/><circle cx="95" cy="45" r="14"/><circle cx="15.5" cy="43.5" r="15.5"/><circle cx="69.5" cy="29.5" r="29.5"/><circle cx="32.5" cy="31.5" r="11.5"/></g><g fill="#ffe500" stroke="#fff" stroke-linecap="round" stroke-linejoin="round" stroke-width="5"><path d="m72.314 113.5h65.172m-101.486 0h12.283"/><path d="m351.314 142.5h65.172m-91.486 0h12.283"/><path d="m324.592 27h46.045m-58.194 0h2.235"/></g></g><path d="m295.806 61.674h11.871v22.737h-11.871z" fill="#2b3e51"/><path d="m289.061 28.385 25.044-14.385-3.078 14.313 6.296 11.061-3.218 22.3-25.308 5.135-4.12-24.806z" fill="#f2c500"/><path d="m263.161 289.045h75.677v4.401h-75.677z" fill="#ecf0f1"/><path d="m283.194 66.809 35.612 7.334v214.902h-35.612zm-28.194 291.18h92v4.401h-92z" fill="#fff"/><path d="m262.419 362.39h76.419v13.202h-76.419z" fill="#ecf0f1"/><path d="m268.355 293.445h65.29v5.868h-65.29z" fill="#c23824"/><path d="m333.645 305.18h-65.29c-1.64 0-2.968-1.313-2.968-2.933s1.329-2.934 2.968-2.934h65.29c1.64 0 2.968 1.314 2.968 2.934s-1.329 2.934-2.968 2.934z" fill="#e94b35"/><path d="m268.355 375.592h65.29l7.42 48.408h-80.13z" fill="#c23824"/><path d="m331.42 280.243v8.802h-1.485v-8.802h-5.935v8.802h-1.484v-8.802h-5.935v8.802h-1.484v-8.802h-5.937v8.802h-1.484v-8.802h-5.935v8.802h-1.484v-8.802h-5.935v8.802h-1.484v-8.802h-5.936v8.802h-1.482v-8.802h-5.935v8.802h-1.485v-8.802h-5.935v8.802h-1.485v-8.802h-5.935v8.802h-1.484v-10.269h75.679v10.269h-1.484v-8.802z" fill="#2b3e51"/><path d="m341.065 375.592c-13.523 0-24.484 10.837-24.484 24.204-.001 13.368 10.961 24.204 24.484 24.204v-3.667c-11.474 0-20.775-9.195-20.775-20.537s9.301-20.537 20.775-20.537zm-80.13 0c13.523 0 24.484 10.837 24.484 24.204.001 13.368-10.961 24.204-24.484 24.204v-3.667c11.474 0 20.775-9.195 20.775-20.537s-9.301-20.537-20.775-20.537z" fill="#fff"/><path d="m268.355 305.18h65.29v52.809h-65.29z" fill="#c23824"/><g fill="#fff"><path d="m299.516 305.18h2.968l-7.42 52.809h-2.967zm-16.322 0h2.967l-7.419 52.809h-2.968z"/><path d="m299.516 305.18h2.968l7.42 52.809h-2.968zm-15.58 0h2.967l7.42 52.809h-2.968zm46.742 0h2.967l-7.419 52.809h-2.968z"/><path d="m314.355 305.18h2.968l-7.42 52.809h-2.967z"/><path d="m315.097 305.18h2.968l7.419 52.809h-2.968zm-46.742 0h2.968l7.42 52.809h-2.969z"/></g></g></svg>