<svg height="600" width="600" xmlns="http://www.w3.org/2000/svg" xmlns:xlink="http://www.w3.org/1999/xlink"><defs><ellipse id="a" cx="225" cy="225.5" rx="225" ry="225.5"/><mask id="b" fill="#fff"><use fill="#fff" fill-rule="evenodd" xlink:href="#a"/></mask></defs><g fill="none" fill-rule="evenodd"><g transform="translate(76 75)"><use fill="#2c97de" xlink:href="#a"/><path d="m28 349.776h397v131.291h-397z" fill="#1fce6d" mask="url(#b)"/><g fill="#fff" transform="translate(3 40.089)"><path d="m16 37.082h80v22.049h-80z"/><ellipse cx="95" cy="45.1" rx="14" ry="14.031"/><ellipse cx="15.5" cy="43.597" rx="15.5" ry="15.534"/><ellipse cx="69.5" cy="29.566" rx="29.5" ry="29.566"/><ellipse cx="32.5" cy="31.57" rx="11.5" ry="11.526"/></g><g fill="#fff" transform="translate(341 69.154)"><path d="m16 37.082h80v22.049h-80z"/><ellipse cx="95" cy="45.1" rx="14" ry="14.031"/><ellipse cx="15.5" cy="43.597" rx="15.5" ry="15.534"/><ellipse cx="69.5" cy="29.566" rx="29.5" ry="29.566"/><ellipse cx="32.5" cy="31.57" rx="11.5" ry="11.526"/></g><g fill="#ffe500" stroke="#fff" stroke-linecap="round" stroke-linejoin="round" stroke-width="5"><path d="m72.314 113.752h65.172m-101.486 0h12.283"/><path d="m351.314 142.817h65.172m-91.486 0h12.283"/><path d="m324.592 27.06h46.045m-58.194 0h2.235"/></g></g><g transform="translate(69 108)"><path d="m173.108 181.183h117.785v7.847h-117.785z" fill="#c23824"/><path d="m180.603 158.357h103.151v7.133h-103.151z" fill="#e94b35"/><path d="m180.246 173.336h103.508l7.138 7.847h-117.784zm0-7.846 24.27-7.133h54.253l24.985 7.133v7.846h-103.508z" fill="#c23824"/><path d="m148.837 194.023h166.683v7.133h-166.683z" fill="#2b3e51"/><path d="m126.776 211.499h210.448l126.776 54.925h-464z" fill="#c23824"/><path d="m143.126 201.156h177.748l107.076 46.364h-391.901z" fill="#e94b35"/><path d="m158.831 167.273h14.277v21.4h-14.277zm1.427-41.016h11.422v35.309h-11.422z" fill="#d55400"/><path d="m157.403 161.21h17.132l-1.427 6.063h-14.278zm2.855-37.806h11.422l.714 2.853h-12.85zm-1.269-8.916h13.96l.872 1.783h-15.704z" fill="#fff"/><path d="m159.188 106.284h13.563v8.203h-13.563z" fill="#ecf0f1"/><path d="m160.258 123.404h11.422l2.141-7.133h-15.704z" fill="#ecf0f1"/><path d="m158.117 103.788h15.705v2.497h-15.705z" fill="#fff"/><path d="m163.114 92.375h5.71l2.142 11.413h-9.994z" fill="#ecf0f1"/><path d="m163.114 21.043h5.711v71.332h-5.711z" fill="#ecf0f1"/><path d="m173.108 99.865h-3.57v3.923h-.713v-3.923h-5.712v3.923h-.714v-3.923h-3.57v3.923h-.711v-4.638h15.704v4.638h-.713v-3.923zm-7.139-99.865 2.856 21.043h-5.711z" fill="#fff"/><path d="m290.893 170.126h14.277v21.4h-14.277zm1.427-41.016h11.422v35.309h-11.422z" fill="#d55400"/><path d="m289.465 164.063h17.132l-1.427 6.063h-14.277zm2.855-37.806h11.422l.714 2.853h-12.85zm-1.269-8.916h13.96l.872 1.783h-15.703z" fill="#fff"/><path d="m291.25 109.137h13.563v8.203h-13.563z" fill="#ecf0f1"/><path d="m292.32 126.257h11.422l2.141-7.133h-15.703z" fill="#ecf0f1"/><path d="m290.179 106.641h15.705v2.497h-15.705z" fill="#fff"/><path d="m295.176 95.228h5.71l2.142 11.413h-9.994z" fill="#ecf0f1"/><path d="m295.176 23.896h5.711v71.332h-5.711z" fill="#ecf0f1"/><path d="m305.17 102.718h-3.57v3.923h-.713v-3.923h-5.712v3.923h-.714v-3.923h-3.57v3.923h-.711v-4.638h15.704v4.638h-.713v-3.923zm-7.139-99.865 2.856 21.043h-5.711z" fill="#fff"/><path d="m280.873 194.023h5.332v7.133h-5.332zm17.18 0h5.332v7.133h-5.332zm-34.36 0h5.332v7.133h-5.332zm-17.18 0h5.332v7.133h-5.332zm-17.179 0h5.332v7.133h-5.332zm-17.18 0h5.332v7.133h-5.332zm-17.18 0h5.332v7.133h-5.332zm-17.179 0h5.332v7.133h-5.332zm-17.18 0h5.332v7.133h-5.332z" fill="#ecf0f1"/><path d="m143.126 188.673h177.748v5.35h-177.748z" fill="#fff"/><path d="m309.048 184.036v-.713h.716v.713h.359v.714h.358v.713h.359v.713h.358v.714h.358v.713h.359v.713h.358v.714h-5.734v-.714h.359v-.713h.358v-.713h.358v-.714h.359v-.713h.358v-.713h.358v-.714zm8.6 0v-.713h.717v.713h.359v.714h.358v.713h.358v.713h.359v.714h.358v.713h.358v.713h.359v.714h-5.734v-.714h.358v-.713h.359v-.713h.358v-.714h.358v-.713h.359v-.713h.358v-.714zm-17.201 0v-.713h.717v.713h.358v.714h.358v.713h.359v.713h.358v.714h.359v.713h.358v.713h.358v.714h-5.733v-.714h.358v-.713h.358v-.713h.359v-.714h.358v-.713h.358v-.713h.359v-.714zm-8.6 0v-.713h.716v.713h.358v.714h.359v.713h.358v.713h.359v.714h.358v.713h.358v.713h.359v.714h-5.734v-.714h.358v-.713h.359v-.713h.358v-.714h.358v-.713h.359v-.713h.358v-.714h.358zm-8.601 0v-.713h.716v.713h.359v.714h.358v.713h.358v.713h.359v.714h.358v.713h.359v.713h.358v.714h-5.734v-.714h.358v-.713h.359v-.713h.358v-.714h.359v-.713h.358v-.713h.358v-.714zm-8.601 0v-.713h.717v.713h.358v.714h.358v.713h.359v.713h.358v.714h.358v.713h.359v.713h.358v.714h-5.734v-.714h.359v-.713h.358v-.713h.359v-.714h.358v-.713h.358v-.713h.359v-.714zm-8.6 0v-.713h.716v.713h.358v.714h.359v.713h.358v.713h.358v.714h.359v.713h.358v.713h.359v.714h-5.734v-.714h.358v-.713h.358v-.713h.359v-.714h.358v-.713h.359v-.713h.358v-.714h.358zm-8.601 0v-.713h.716v.713h.359v.714h.358v.713h.358v.713h.359v.714h.358v.713h.358v.713h.359v.714h-5.734v-.714h.358v-.713h.359v-.713h.358v-.714h.358v-.713h.359v-.713h.358v-.714zm-8.601 0v-.713h.717v.713h.358v.714h.358v.713h.359v.713h.358v.714h.358v.713h.359v.713h.358v.714h-5.734v-.714h.359v-.713h.358v-.713h.358v-.714h.359v-.713h.358v-.713h.359v-.714zm-8.6 0v-.713h.716v.713h.358v.714h.359v.713h.358v.713h.358v.714h.359v.713h.358v.713h.358v.714h-5.733v-.714h.358v-.713h.358v-.713h.359v-.714h.358v-.713h.358v-.713h.359v-.714h.358zm-8.602 0v-.713h.717v.713h.359v.714h.358v.713h.358v.713h.359v.714h.358v.713h.358v.713h.359v.714h-5.734v-.714h.358v-.713h.359v-.713h.358v-.714h.358v-.713h.359v-.713h.358v-.714zm-8.6 0v-.713h.717v.713h.358v.714h.358v.713h.359v.713h.358v.714h.358v.713h.359v.713h.358v.714h-5.734v-.714h.359v-.713h.358v-.713h.358v-.714h.359v-.713h.358v-.713h.358v-.714zm-8.6 0v-.713h.716v.713h.358v.714h.359v.713h.358v.713h.358v.714h.359v.713h.358v.713h.358v.714h-5.733v-.714h.358v-.713h.358v-.713h.359v-.714h.358v-.713h.358v-.713h.359v-.714h.358zm-8.602 0v-.713h.717v.713h.358v.714h.359v.713h.358v.713h.359v.714h.358v.713h.358v.713h.359v.714h-5.734v-.714h.358v-.713h.359v-.713h.358v-.714h.358v-.713h.359v-.713h.358v-.714zm-8.6 0v-.713h.716v.713h.359v.714h.358v.713h.359v.713h.358v.714h.358v.713h.359v.713h.358v.714h-5.734v-.714h.359v-.713h.358v-.713h.358v-.714h.359v-.713h.358v-.713h.358v-.714zm-8.601 0v-.713h.717v.713h.358v.714h.358v.713h.359v.713h.358v.714h.359v.713h.358v.713h.358v.714h-5.734v-.714h.359v-.713h.358v-.713h.359v-.714h.358v-.713h.358v-.713h.359v-.714zm-8.6 0v-.713h.716v.713h.358v.714h.359v.713h.358v.713h.358v.714h.359v.713h.358v.713h.359v.714h-5.734v-.714h.358v-.713h.359v-.713h.358v-.714h.358v-.713h.359v-.713h.358v-.714h.358zm-8.601 0v-.713h.716v.713h.359v.714h.358v.713h.358v.713h.359v.714h.358v.713h.359v.713h.358v.714h-5.734v-.714h.358v-.713h.359v-.713h.358v-.714h.359v-.713h.358v-.713h.358v-.714zm-8.601 0v-.713h.717v.713h.358v.714h.358v.713h.359v.713h.358v.714h.358v.713h.359v.713h.358v.714h-5.734v-.714h.359v-.713h.358v-.713h.358v-.714h.359v-.713h.358v-.713h.359v-.714zm-8.6 0v-.713h.716v.713h.358v.714h.359v.713h.358v.713h.358v.714h.359v.713h.358v.713h.358v.714h-5.733v-.714h.358v-.713h.358v-.713h.359v-.714h.358v-.713h.359v-.713h.358v-.714h.358zm-8.601 0v-.713h.716v.713h.359v.714h.358v.713h.358v.713h.359v.714h.358v.713h.358v.713h.359v.714h-5.734v-.714h.358v-.713h.359v-.713h.358v-.714h.358v-.713h.359v-.713h.358v-.714z" fill="#fff"/><path d="m223.792 107.027-.001-.058c0-2.151 3.835-3.895 8.566-3.895 4.73 0 8.566 1.744 8.566 3.895v3.952h-17.132v-3.894z" fill="#ecf0f1"/><path d="m194.884 132.677a15.548 15.548 0 0 1 -.004-.356c0-13.198 16.779-23.897 37.477-23.897s37.477 10.7 37.477 23.897c0 .119-.002.238-.004.356l.004 23.896h-74.954v-23.896z" fill="#fff"/><path d="m36.049 266.424h391.902v29.959h-391.902z" fill="#2b3e51"/><path d="m180.603 154.79h102.794v3.567h-102.794z" fill="#c23824"/><g fill="#2b3e51"><ellipse cx="197.378" cy="176.903" rx="2.855" ry="2.853"/><ellipse cx="266.622" cy="176.903" rx="2.855" ry="2.853"/><ellipse cx="243.778" cy="177.26" rx="2.855" ry="2.853"/><ellipse cx="220.222" cy="177.26" rx="2.855" ry="2.853"/><path d="m209.157 160.14h5.711v5.707h-5.711zm19.988 0h5.711v5.707h-5.711zm19.987 0h5.711v5.707h-5.711z"/></g><path d="m230.929 100.221h2.855v4.28h-2.855z" fill="#ecf0f1"/><ellipse cx="232.357" cy="99.508" fill="#fff" rx="2.142" ry="2.14"/><path d="m232.357 81.675.714 17.12h-1.428z" fill="#fff"/><path d="m36.049 288.537h146.338v27.106h-146.338zm245.563.357h146.338v27.106h-146.338z" fill="#ecf0f1"/><path d="m36.05 266.424h4.282v22.113h-4.282zm142.055 0h4.283v22.113h-4.283zm51.753 0h4.284v29.96h-4.284zm51.754.357h4.283v22.113h-4.283v-22.114zm142.056 0h4.283v22.113h-4.283v-22.114zm-71.028-.357h4.283v22.113h-4.283zm35.335.357h4.283v22.113h-4.283v-22.114zm-70.67-.357h4.283v22.113h-4.283zm-174.893 0h4.283v22.113h-4.283zm-70.67 0h4.283v22.113h-4.283zm35.335 0h4.283v22.113h-4.283zm148.48 0h4.283v29.96h-4.283zm-51.397 0h4.283v29.96h-4.283zm-39.618 36.023h149.907l21.416 13.196h-192.739z" fill="#fff"/><path d="m164.542 296.384h149.908v6.063h-149.908z" fill="#d55400"/></g></g></svg>