<svg height="600" width="600" xmlns="http://www.w3.org/2000/svg" xmlns:xlink="http://www.w3.org/1999/xlink"><defs><circle id="a" cx="225" cy="225" r="225"/><mask id="b" fill="#fff"><use fill="#fff" fill-rule="evenodd" xlink:href="#a"/></mask></defs><g fill="none" fill-rule="evenodd"><g transform="translate(76 75)"><use fill="#2c97de" xlink:href="#a"/><path d="m28 349h397v131h-397z" fill="#1fce6d" mask="url(#b)"/><g fill="#fff" transform="translate(3 40)"><path d="m16 37h80v22h-80z"/><circle cx="95" cy="45" r="14"/><circle cx="15.5" cy="43.5" r="15.5"/><circle cx="69.5" cy="29.5" r="29.5"/><circle cx="32.5" cy="31.5" r="11.5"/></g><g fill="#fff" transform="translate(341 69)"><path d="m16 37h80v22h-80z"/><circle cx="95" cy="45" r="14"/><circle cx="15.5" cy="43.5" r="15.5"/><circle cx="69.5" cy="29.5" r="29.5"/><circle cx="32.5" cy="31.5" r="11.5"/></g><g fill="#ffe500" stroke="#fff" stroke-linecap="round" stroke-linejoin="round" stroke-width="5"><path d="m72.314 113.5h65.172m-101.486 0h12.283"/><path d="m351.314 142.5h65.172m-91.486 0h12.283"/><path d="m324.592 27h46.045m-58.194 0h2.235"/></g></g><path d="m113.506 317.873h372.988v88.218h-372.988z" fill="#bdc3c7"/><path d="m235.406 334.123h29.813v15.256h-29.813z" fill="#00a185"/><path d="m238.056 336.776h24.181v9.949h-24.181z" fill="#2b3e51"/><path d="m384.469 334.123h29.813v15.256h-29.813z" fill="#00a185"/><path d="m387.119 336.776h24.181v9.949h-24.181z" fill="#2b3e51"/><path d="m434.156 334.123h29.813v15.256h-29.813z" fill="#00a185"/><path d="m436.806 336.776h24.181v9.949h-24.181z" fill="#2b3e51"/><path d="m185.719 334.123h29.813v15.256h-29.813z" fill="#00a185"/><path d="m188.369 336.776h24.181v9.949h-24.181z" fill="#2b3e51"/><path d="m334.781 334.123h29.813v15.256h-29.813z" fill="#00a185"/><path d="m337.431 336.776h24.181v9.949h-24.181z" fill="#2b3e51"/><path d="m136.031 334.123h29.813v15.256h-29.813z" fill="#00a185"/><path d="m138.681 336.776h24.181v9.949h-24.181z" fill="#2b3e51"/><path d="m285.094 334.123h29.813v15.256h-29.813z" fill="#00a185"/><path d="m287.744 336.776h24.181v9.949h-24.181z" fill="#2b3e51"/><path d="m93.962 406.091h412.075v1h-412.075z" fill="#e94b35"/><path d="m93.962 406.091h412.075v3.517h-412.075z" fill="#c23824"/><path d="m93.962 409.608h412.075v3.517h-412.075z" fill="#e94b35"/><path d="m93.962 413.125h412.075v3.517h-412.075zm0 7.034h412.075v3.517h-412.075z" fill="#c23824"/><path d="m93.962 416.642h412.075v3.517h-412.075z" fill="#e94b35"/><path d="m285.094 362.313h29.813v43.777h-29.813z" fill="#00a185"/><path d="m288.738 365.961h9.938v24.873h-9.938z" fill="#2b3e51"/><path d="m287.744 391.498v-26.532h11.925v41.124h-11.925zm1.988-7.96h3.312v-4.975h-3.313v4.975zm0 .663v5.307h3.312v-5.307h-3.313zm4.637-.663h3.313v-4.975h-3.314v4.975zm0 .663v5.307h3.313v-5.307h-3.314zm-4.638-11.607v5.306h3.313v-5.306zm0-.663h3.313v-4.975h-3.313zm4.638.663v5.306h3.313v-5.306h-3.314zm0-.663h3.313v-4.975h-3.314v4.975z" fill="#f2c500"/><path d="m289.732 391.498h3.313v11.939h-3.313zm4.637 0h3.313v11.939h-3.313z" fill="#f59d00"/><path d="m301.326 365.961h9.938v24.873h-9.938z" fill="#2b3e51"/><path d="m300.332 391.498v-26.532h11.925v41.124h-11.925zm1.988-7.96h3.312v-4.975h-3.313v4.975zm0 .663v5.307h3.312v-5.307h-3.313zm4.637-.663h3.313v-4.975h-3.314v4.975zm0 .663v5.307h3.313v-5.307h-3.314zm-4.638-11.607v5.306h3.313v-5.306zm0-.663h3.313v-4.975h-3.313zm4.638.663v5.306h3.313v-5.306h-3.314zm0-.663h3.313v-4.975h-3.314v4.975z" fill="#f2c500"/><path d="m302.32 391.498h3.313v11.939h-3.313zm4.637 0h3.313v11.939h-3.313z" fill="#f59d00"/><path d="m384.469 362.313h29.813v43.777h-29.813z" fill="#00a185"/><path d="m388.113 365.961h9.938v24.873h-9.938z" fill="#2b3e51"/><path d="m387.119 391.498v-26.532h11.925v41.124h-11.925zm1.988-7.96h3.312v-4.975h-3.313v4.975zm0 .663v5.307h3.312v-5.307h-3.313zm4.637-.663h3.313v-4.975h-3.314v4.975zm0 .663v5.307h3.313v-5.307h-3.314zm-4.638-11.607v5.306h3.313v-5.306zm0-.663h3.313v-4.975h-3.313zm4.638.663v5.306h3.313v-5.306h-3.314zm0-.663h3.313v-4.975h-3.314v4.975z" fill="#f2c500"/><path d="m389.107 391.498h3.313v11.939h-3.313zm4.637 0h3.313v11.939h-3.313z" fill="#f59d00"/><path d="m400.701 365.961h9.938v24.873h-9.938z" fill="#2b3e51"/><path d="m399.707 391.498v-26.532h11.925v41.124h-11.925zm1.988-7.96h3.312v-4.975h-3.313v4.975zm0 .663v5.307h3.312v-5.307h-3.313zm4.637-.663h3.313v-4.975h-3.314v4.975zm0 .663v5.307h3.313v-5.307h-3.314zm-4.638-11.607v5.306h3.313v-5.306zm0-.663h3.313v-4.975h-3.313zm4.638.663v5.306h3.313v-5.306h-3.314zm0-.663h3.313v-4.975h-3.314v4.975z" fill="#f2c500"/><path d="m401.695 391.498h3.313v11.939h-3.313zm4.637 0h3.313v11.939h-3.313z" fill="#f59d00"/><path d="m185.719 362.313h29.813v43.777h-29.813z" fill="#00a185"/><path d="m189.363 365.961h9.938v24.873h-9.938z" fill="#2b3e51"/><path d="m188.369 391.498v-26.532h11.925v41.124h-11.925zm1.988-7.96h3.312v-4.975h-3.313v4.975zm0 .663v5.307h3.312v-5.307h-3.313zm4.637-.663h3.313v-4.975h-3.314v4.975zm0 .663v5.307h3.313v-5.307h-3.314zm-4.638-11.607v5.306h3.313v-5.306zm0-.663h3.313v-4.975h-3.313zm4.638.663v5.306h3.313v-5.306h-3.314zm0-.663h3.313v-4.975h-3.314v4.975z" fill="#f2c500"/><path d="m190.357 391.498h3.313v11.939h-3.313zm4.637 0h3.313v11.939h-3.313z" fill="#f59d00"/><path d="m201.951 365.961h9.938v24.873h-9.938z" fill="#2b3e51"/><path d="m200.957 391.498v-26.532h11.925v41.124h-11.925zm1.988-7.96h3.312v-4.975h-3.313v4.975zm0 .663v5.307h3.312v-5.307h-3.313zm4.637-.663h3.313v-4.975h-3.314v4.975zm0 .663v5.307h3.313v-5.307h-3.314zm-4.638-11.607v5.306h3.313v-5.306zm0-.663h3.313v-4.975h-3.313zm4.638.663v5.306h3.313v-5.306h-3.314zm0-.663h3.313v-4.975h-3.314v4.975z" fill="#f2c500"/><path d="m202.945 391.498h3.313v11.939h-3.313zm4.637 0h3.313v11.939h-3.313z" fill="#f59d00"/><path d="m136.031 362.313h29.813v31.838h-29.813z" fill="#00a185"/><path d="m139.344 365.961h9.938v24.873h-9.938zm13.25 0h9.938v24.873h-9.938z" fill="#2b3e51"/><path d="m140.669 383.538h3.312v-4.974h-3.313v4.974zm0 .664v5.306h3.312v-5.306h-3.313zm4.637-.664h3.313v-4.974h-3.314v4.974zm0 .664v5.306h3.313v-5.306h-3.314zm-4.638-11.609v5.306h3.313v-5.306zm0-.663h3.313v-4.974h-3.313v4.975zm4.638.663v5.306h3.313v-5.306h-3.314zm0-.663h3.313v-4.974h-3.314v4.975zm-4.638 19.568h-1.987v-26.532h11.925v26.532h-9.937zm12.588-7.96h3.313v-4.974h-3.313zm0 .664v5.306h3.313v-5.306zm4.637-.664h3.313v-4.974h-3.313zm0 .664v5.306h3.313v-5.306zm-4.636-11.609v5.306h3.313v-5.306zm0-.663h3.313v-4.974h-3.313v4.975zm4.637.663v5.306h3.313v-5.306zm0-.663h3.313v-4.974h-3.313v4.975zm-4.637 19.567h-1.988v-26.531h11.926v26.532h-9.938z" fill="#f2c500"/><path d="m235.406 362.313h29.813v31.838h-29.813z" fill="#00a185"/><path d="m238.719 365.961h9.938v24.873h-9.938zm13.25 0h9.938v24.873h-9.938z" fill="#2b3e51"/><path d="m240.044 383.538h3.312v-4.974h-3.313v4.974zm0 .664v5.306h3.312v-5.306h-3.313zm4.637-.664h3.313v-4.974h-3.314v4.974zm0 .664v5.306h3.313v-5.306h-3.314zm-4.638-11.609v5.306h3.313v-5.306zm0-.663h3.313v-4.974h-3.313v4.975zm4.638.663v5.306h3.313v-5.306h-3.314zm0-.663h3.313v-4.974h-3.314v4.975zm-4.638 19.568h-1.987v-26.532h11.925v26.532h-9.937zm12.588-7.96h3.313v-4.974h-3.313zm0 .664v5.306h3.313v-5.306zm4.637-.664h3.313v-4.974h-3.313zm0 .664v5.306h3.313v-5.306zm-4.636-11.609v5.306h3.313v-5.306zm0-.663h3.313v-4.974h-3.313v4.975zm4.637.663v5.306h3.313v-5.306zm0-.663h3.313v-4.974h-3.313v4.975zm-4.637 19.567h-1.988v-26.531h11.926v26.532h-9.938z" fill="#f2c500"/><path d="m334.781 362.313h29.813v31.838h-29.813z" fill="#00a185"/><path d="m338.094 365.961h9.938v24.873h-9.938zm13.25 0h9.938v24.873h-9.938z" fill="#2b3e51"/><path d="m339.419 383.538h3.312v-4.974h-3.313v4.974zm0 .664v5.306h3.312v-5.306h-3.313zm4.637-.664h3.313v-4.974h-3.314v4.974zm0 .664v5.306h3.313v-5.306h-3.314zm-4.638-11.609v5.306h3.313v-5.306zm0-.663h3.313v-4.974h-3.313v4.975zm4.638.663v5.306h3.313v-5.306h-3.314zm0-.663h3.313v-4.974h-3.314v4.975zm-4.638 19.568h-1.987v-26.532h11.925v26.532h-9.937zm12.588-7.96h3.313v-4.974h-3.313zm0 .664v5.306h3.313v-5.306zm4.637-.664h3.313v-4.974h-3.313zm0 .664v5.306h3.313v-5.306zm-4.636-11.609v5.306h3.313v-5.306zm0-.663h3.313v-4.974h-3.313v4.975zm4.637.663v5.306h3.313v-5.306zm0-.663h3.313v-4.974h-3.313v4.975zm-4.637 19.567h-1.988v-26.531h11.926v26.532h-9.938z" fill="#f2c500"/><path d="m434.156 362.313h29.813v31.838h-29.813z" fill="#00a185"/><path d="m437.469 365.961h9.938v24.873h-9.938zm13.25 0h9.938v24.873h-9.938z" fill="#2b3e51"/><path d="m438.794 383.538h3.312v-4.974h-3.313v4.974zm0 .664v5.306h3.312v-5.306h-3.313zm4.637-.664h3.313v-4.974h-3.314v4.974zm0 .664v5.306h3.313v-5.306h-3.314zm-4.638-11.609v5.306h3.313v-5.306zm0-.663h3.313v-4.974h-3.313v4.975zm4.638.663v5.306h3.313v-5.306h-3.314zm0-.663h3.313v-4.974h-3.314v4.975zm-4.638 19.568h-1.987v-26.532h11.925v26.532h-9.937zm12.588-7.96h3.313v-4.974h-3.313zm0 .664v5.306h3.313v-5.306zm4.637-.664h3.313v-4.974h-3.313zm0 .664v5.306h3.313v-5.306zm-4.636-11.609v5.306h3.313v-5.306zm0-.663h3.313v-4.974h-3.313v4.975zm4.637.663v5.306h3.313v-5.306zm0-.663h3.313v-4.974h-3.313v4.975zm-4.637 19.567h-1.988v-26.531h11.926v26.532h-9.938z" fill="#f2c500"/><path d="m113.506 317.873h372.988v6.633h-372.988z" fill="#ecf0f1"/><path d="m247.33 317.873h9.937l1.657 68.319h-13.25z" fill="#fff"/><path d="m244.68 380.223h15.238v2.653h-15.238z" fill="#00a185"/><path d="m243.024 386.193h18.55l-2.65 3.98h-13.25z" fill="#f2c500"/><path d="m246.336 327.822h11.925v2.653h-11.925z" fill="#00a185"/><path d="m245.011 317.873h14.575v2.653h-14.575z" fill="#f2c500"/><path d="m246.336 320.526h11.925v2.653h-11.925z" fill="#f59d00"/><path d="m232.755 390.172h39.087v33.828h-39.087z" fill="#fff"/><path d="m149.047 390.172c5.5 6.033 18.66 10.28 34.02 10.28 15.361 0 28.522-4.247 34.022-10.28h15.666v33.828h-99.706v-33.828z" fill="#ecf0f1"/><path d="m108.537 317.873h9.938l1.656 68.319h-13.25z" fill="#fff"/><path d="m105.887 380.223h15.238v2.653h-15.238z" fill="#00a185"/><path d="m104.231 386.193h18.55l-2.65 3.98h-13.25z" fill="#f2c500"/><path d="m107.543 327.822h11.925v2.653h-11.925z" fill="#00a185"/><path d="m106.218 317.873h14.575v2.653h-14.575z" fill="#f2c500"/><path d="m107.543 320.526h11.925v2.653h-11.925z" fill="#f59d00"/><path d="m93.962 390.172h39.087v33.828h-39.087z" fill="#fff"/><path d="m247.33 317.873h9.937l1.657 68.319h-13.25z" fill="#fff"/><path d="m244.68 380.223h15.238v2.653h-15.238z" fill="#00a185"/><path d="m243.024 386.193h18.55l-2.65 3.98h-13.25z" fill="#f2c500"/><path d="m246.336 327.822h11.925v2.653h-11.925z" fill="#00a185"/><path d="m245.011 317.873h14.575v2.653h-14.575z" fill="#f2c500"/><path d="m246.336 320.526h11.925v2.653h-11.925z" fill="#f59d00"/><path d="m232.755 390.172h39.087v33.828h-39.087z" fill="#fff"/><path d="m149.047 390.172c5.5 6.033 18.66 10.28 34.02 10.28 15.361 0 28.522-4.247 34.022-10.28h15.666v33.828h-99.706v-33.828z" fill="#ecf0f1"/><path d="m108.537 317.873h9.938l1.656 68.319h-13.25z" fill="#fff"/><path d="m105.887 380.223h15.238v2.653h-15.238z" fill="#00a185"/><path d="m104.231 386.193h18.55l-2.65 3.98h-13.25z" fill="#f2c500"/><path d="m107.543 327.822h11.925v2.653h-11.925z" fill="#00a185"/><path d="m106.218 317.873h14.575v2.653h-14.575z" fill="#f2c500"/><path d="m107.543 320.526h11.925v2.653h-11.925z" fill="#f59d00"/><path d="m93.962 390.172h39.087v33.828h-39.087z" fill="#fff"/><path d="m481.524 317.873h9.938l1.656 68.319h-13.25z" fill="#fff"/><path d="m478.874 380.223h15.238v2.653h-15.238z" fill="#00a185"/><path d="m477.218 386.193h18.55l-2.65 3.98h-13.25z" fill="#f2c500"/><path d="m480.53 327.822h11.925v2.653h-11.925z" fill="#00a185"/><path d="m479.205 317.873h14.575v2.653h-14.575z" fill="#f2c500"/><path d="m480.53 320.526h11.925v2.653h-11.925z" fill="#f59d00"/><path d="m466.949 390.172h39.087v33.828h-39.087z" fill="#fff"/><path d="m383.241 390.172c5.5 6.033 18.66 10.28 34.02 10.28 15.361 0 28.522-4.247 34.022-10.28h15.666v33.828h-99.706v-33.828z" fill="#ecf0f1"/><path d="m342.731 317.873h9.938l1.656 68.319h-13.25z" fill="#fff"/><path d="m340.081 380.223h15.238v2.653h-15.238z" fill="#00a185"/><path d="m338.425 386.193h18.55l-2.65 3.98h-13.25z" fill="#f2c500"/><path d="m341.737 327.822h11.925v2.653h-11.925z" fill="#00a185"/><path d="m340.412 317.873h14.575v2.653h-14.575z" fill="#f2c500"/><path d="m341.737 320.526h11.925v2.653h-11.925z" fill="#f59d00"/><path d="m328.156 390.172h39.087v33.828h-39.087z" fill="#fff"/><path d="m200.625 284.709h198.75l165.625 33.164h-530z" fill="#1aaf5d"/><path d="m200.625 258.177h198.75v26.532h-198.75z" fill="#ecf0f1"/><path d="m213.875 263.815h29.813v15.256h-29.813z" fill="#00a185"/><path d="m216.525 266.468h24.181v9.949h-24.181z" fill="#2b3e51"/><path d="m260.25 263.815h29.813v15.256h-29.813z" fill="#00a185"/><path d="m262.9 266.468h24.181v9.949h-24.181z" fill="#2b3e51"/><path d="m309.938 263.815h29.813v15.256h-29.813z" fill="#00a185"/><path d="m312.588 266.468h24.181v9.949h-24.181z" fill="#2b3e51"/><path d="m356.313 263.815h29.813v15.256h-29.813z" fill="#00a185"/><path d="m358.963 266.468h24.181v9.949h-24.181z" fill="#2b3e51"/><path d="m250.313 244.911h99.375l82.812 13.266h-265z" fill="#1aaf5d"/><path d="m300 162 49.688 82.911h-99.375z" fill="#1fce6d"/></g></svg>