<svg height="600" width="600" xmlns="http://www.w3.org/2000/svg" xmlns:xlink="http://www.w3.org/1999/xlink"><defs><circle id="a" cx="225" cy="225" r="225"/><mask id="b" fill="#fff"><use fill="#fff" fill-rule="evenodd" xlink:href="#a"/></mask><mask id="c" fill="#fff"><path d="m0 0h150.591v103h-150.591z" fill="#fff" fill-rule="evenodd"/></mask></defs><g fill="none" fill-rule="evenodd"><g transform="translate(76 75)"><use fill="#2c97de" xlink:href="#a"/><path d="m28 349h397v131h-397z" fill="#1fce6d" mask="url(#b)"/><g fill="#fff" transform="translate(3 40)"><path d="m16 37h80v22h-80z"/><circle cx="95" cy="45" r="14"/><circle cx="15.5" cy="43.5" r="15.5"/><circle cx="69.5" cy="29.5" r="29.5"/><circle cx="32.5" cy="31.5" r="11.5"/></g><g fill="#fff" transform="translate(341 69)"><path d="m16 37h80v22h-80z"/><circle cx="95" cy="45" r="14"/><circle cx="15.5" cy="43.5" r="15.5"/><circle cx="69.5" cy="29.5" r="29.5"/><circle cx="32.5" cy="31.5" r="11.5"/></g><g fill="#ffe500" stroke="#fff" stroke-linecap="round" stroke-linejoin="round" stroke-width="5"><path d="m72.314 113.5h65.172m-101.486 0h12.283"/><path d="m351.314 142.5h65.172m-91.486 0h12.283"/><path d="m324.592 27h46.045m-58.194 0h2.235"/></g></g><path d="m11 367.506h82.005v59.495h-82.005z" fill="#2c97de"/><path d="m107.915 363.044h119.28l14.91 17.105h-149.1z" fill="#33495f"/><path d="m84.432 380.149h157.674v46.852h-157.674z" fill="#2c97de"/><path d="m11 380.149h216.195v5.95h-216.195zm0 15.245h216.195v5.95h-216.195zm0 15.246h216.195v5.95h-216.195z" fill="#ecf0f1"/><path d="m229.68 369.737 12.425 10.361-12.425 45.416-12.425-45.415 12.425-10.36zm-24.85 0 12.425 10.361-12.425 45.416-12.425-45.415 12.425-10.36zm-24.85 0 12.425 10.361-12.425 45.416-12.425-45.415 12.425-10.36zm-49.7 0 12.425 10.361-12.425 45.416-12.425-45.415 12.425-10.36zm24.85 0 12.425 10.361-12.425 45.416-12.425-45.415 12.425-10.36zm-49.7 0 12.425 10.361-12.425 45.416-12.425-45.416 12.425-10.36z" fill="#fff"/><path d="m52.003 348.542 41.002 16.361h-82.005z" fill="#ecf0f1"/><path d="m52.189 352.632 30.752 12.271h-61.504z" fill="#2c97de"/><path d="m11 364.903h82.005v5.95h-82.005zm0 46.852h82.005v15.245h-82.005z" fill="#ecf0f1"/><path d="m30.383 414.73h17.519v12.271h-17.519z" fill="#33495f"/><path d="m73.622 364.903h19.383v48.711h-19.383zm-25.72 0h19.383v48.711h-19.383zm-36.902 0h19.383v48.711h-19.383z" fill="#fff"/><path d="m591 367.506h-82.005v59.495h82.005z" fill="#2c97de"/><path d="m494.085 363.044h-119.28l-14.91 17.105h149.1z" fill="#33495f"/><path d="m517.568 380.149h-157.674v46.852h157.674z" fill="#2c97de"/><path d="m591 380.149h-216.195v5.95h216.195zm0 15.245h-216.195v5.95h216.195zm0 15.246h-216.195v5.95h216.195z" fill="#ecf0f1"/><path d="m372.32 369.737-12.425 10.361 12.425 45.416 12.425-45.415-12.425-10.36zm24.85 0-12.425 10.361 12.425 45.416 12.425-45.415-12.425-10.36zm24.85 0-12.425 10.361 12.425 45.416 12.425-45.415-12.425-10.36zm49.7 0-12.425 10.361 12.425 45.416 12.425-45.415-12.425-10.36zm-24.85 0-12.425 10.361 12.425 45.416 12.425-45.415-12.425-10.36zm49.7 0-12.425 10.361 12.425 45.416 12.425-45.416-12.425-10.36z" fill="#fff"/><path d="m549.997 348.542-41.002 16.361h82.005z" fill="#ecf0f1"/><path d="m549.811 352.632-30.752 12.271h61.504z" fill="#2c97de"/><path d="m591 364.903h-82.005v5.95h82.005zm0 46.852h-82.005v15.245h82.005z" fill="#ecf0f1"/><path d="m571.617 414.73h-17.519v12.271h17.519z" fill="#33495f"/><path d="m528.378 364.903h-19.383v48.711h19.383zm25.72 0h-19.383v48.711h19.383zm36.902 0h-19.383v48.711h19.383z" fill="#fff"/><g transform="translate(225.704 324)"><ellipse cx="75.296" cy="89.8" fill="#ecf0f1" mask="url(#c)" rx="75.296" ry="89.8"/><ellipse cx="75.296" cy="90.543" fill="#bdc3c7" mask="url(#c)" rx="67.095" ry="80.132"/><ellipse cx="75.296" cy="103.558" fill="#2c97de" mask="url(#c)" rx="62.249" ry="67.117"/><ellipse cx="75.296" cy="101.327" fill="#227fbb" mask="url(#c)" rx="23.856" ry="25.471"/><ellipse cx="75.296" cy="100.955" fill="#bdc3c7" mask="url(#c)" rx="18.638" ry="19.522"/><g mask="url(#c)"><path d="m45.476 101.884h59.64v1.116h-59.64z" fill="#fff"/><path d="m45.849 100.769h58.895v1.116h-58.895z" fill="#ecf0f1"/><path d="m46.222 99.653h58.149v1.116h-58.149z" fill="#fff"/><path d="m46.594 98.538h57.404v1.116h-57.404z" fill="#ecf0f1"/><path d="m46.967 97.422h56.658v1.116h-56.658z" fill="#fff"/><path d="m47.34 96.307h55.913v1.116h-55.913z" fill="#ecf0f1"/><path d="m47.713 95.191h55.167v1.116h-55.167z" fill="#fff"/><path d="m48.085 94.076h54.422v1.116h-54.422z" fill="#ecf0f1"/><path d="m48.458 92.96h53.676v1.116h-53.676z" fill="#fff"/><path d="m66.35 87.382h17.892v5.578h-17.892z" fill="#33495f"/><path d="m70.823 81.061h8.946v11.899h-8.946zm0-70.278h8.946v11.899h-8.946z" fill="#227fbb"/><path d="m70.823 22.682h8.946v58.379h-8.946z" fill="#fff"/><path d="m70.823 42.39h8.946v2.975h-8.946zm0 16.361h8.946v2.975h-8.946z" fill="#227fbb"/><path d="m64.114 4.09h22.365v6.693h-22.365z" fill="#fff"/></g></g></g></svg>