<svg height="600" width="600" xmlns="http://www.w3.org/2000/svg" xmlns:xlink="http://www.w3.org/1999/xlink"><defs><circle id="a" cx="225" cy="225" r="225"/><mask id="b" fill="#fff"><use fill="#fff" fill-rule="evenodd" xlink:href="#a"/></mask></defs><g fill="none" fill-rule="evenodd"><g transform="translate(76 75)"><use fill="#2c97de" xlink:href="#a"/><path d="m28 349h397v131h-397z" fill="#1fce6d" mask="url(#b)"/><g fill="#fff" transform="translate(3 40)"><path d="m16 37h80v22h-80z"/><circle cx="95" cy="45" r="14"/><circle cx="15.5" cy="43.5" r="15.5"/><circle cx="69.5" cy="29.5" r="29.5"/><circle cx="32.5" cy="31.5" r="11.5"/></g><g fill="#fff" transform="translate(341 69)"><path d="m16 37h80v22h-80z"/><circle cx="95" cy="45" r="14"/><circle cx="15.5" cy="43.5" r="15.5"/><circle cx="69.5" cy="29.5" r="29.5"/><circle cx="32.5" cy="31.5" r="11.5"/></g><g fill="#ffe500" stroke="#fff" stroke-linecap="round" stroke-linejoin="round" stroke-width="5"><path d="m72.314 113.5h65.172m-101.486 0h12.283"/><path d="m351.314 142.5h65.172m-91.486 0h12.283"/><path d="m324.592 27h46.045m-58.194 0h2.235"/></g></g><path d="m283.5 78.676h35l17.5 345.324h-70z" fill="#ecf0f1"/><path d="m277.667 66.014h46.667v12.662h-46.667z" fill="#fff"/><path d="m299.833 78.676h2.333v5.755h-2.333zm-17.5 0h2.333v5.755h-2.333zm35 0h2.333v5.755h-2.333z" fill="#bdc3c7"/><path d="m298.666 99.971h4.667v5.755h-4.667z" fill="#2b3e51"/><path d="m298.083 98.82h5.833v1.151h-5.833z" fill="#fff"/><path d="m298.666 141.41h4.667v5.755h-4.667z" fill="#2b3e51"/><path d="m298.083 140.259h5.833v1.151h-5.833z" fill="#fff"/><path d="m298.666 182.849h4.667v5.755h-4.667z" fill="#2b3e51"/><path d="m298.083 181.698h5.833v1.151h-5.833z" fill="#fff"/><path d="m298.666 224.288h4.667v5.755h-4.667z" fill="#2b3e51"/><path d="m298.083 223.137h5.833v1.151h-5.833z" fill="#fff"/><path d="m298.666 265.727h4.667v5.755h-4.667z" fill="#2b3e51"/><path d="m298.083 264.576h5.833v1.151h-5.833z" fill="#fff"/><path d="m298.666 348.604h4.667v5.755h-4.667z" fill="#2b3e51"/><path d="m298.083 347.453h5.833v1.151h-5.833z" fill="#fff"/><path d="m298.666 307.165h4.667v5.755h-4.667z" fill="#2b3e51"/><path d="m298.083 306.014h5.833v1.151h-5.833z" fill="#fff"/><path d="m278.834 52.201h1.167v13.813h-1.167z" fill="#bdc3c7"/><path d="m274.167 45.87c3.222 0 5.833 2.834 5.833 6.33 0 3.497-2.611 6.332-5.833 6.332z" fill="#ecf0f1"/><path d="m283.5 30.331h1.167v35.683h-1.167z" fill="#bdc3c7"/><path d="m278.833 24c3.222 0 5.833 2.834 5.833 6.33 0 3.497-2.611 6.332-5.833 6.332z" fill="#ecf0f1"/><path d="m286.417 51.05h29.167v3.453h-29.167z" fill="#fff"/><path d="m301 47.597 14.583 3.453h-29.166z" fill="#ecf0f1"/><path d="m286.417 54.504h1.167v11.511h-1.167zm28 0h1.167v11.511h-1.167zm-14 0h1.167v11.511h-1.167z" fill="#bdc3c7"/></g></svg>