<svg height="600" width="600" xmlns="http://www.w3.org/2000/svg" xmlns:xlink="http://www.w3.org/1999/xlink"><defs><circle id="a" cx="225" cy="225" r="225"/><path id="b" d="m0 49.898s54.459-49.858 81.798-49.858c27.338 0 81.798 49.858 81.798 49.858v48.549h-163.596v-48.55z"/><path id="c" d="m67.416 0h163.594l67.416 211.279h-298.426z"/><mask id="d" fill="#fff"><use fill="#fff" fill-rule="evenodd" xlink:href="#a"/></mask><mask id="e" fill="#fff"><use fill="#fff" fill-rule="evenodd" xlink:href="#b"/></mask><mask id="f" fill="#fff"><use fill="#fff" fill-rule="evenodd" xlink:href="#c"/></mask></defs><g fill="none" fill-rule="evenodd"><g transform="translate(76 75)"><use fill="#2c97de" xlink:href="#a"/><path d="m28 349h397v131h-397z" fill="#1fce6d" mask="url(#d)"/><g fill="#fff" transform="translate(3 40)"><path d="m16 37h80v22h-80z"/><circle cx="95" cy="45" r="14"/><circle cx="15.5" cy="43.5" r="15.5"/><circle cx="69.5" cy="29.5" r="29.5"/><circle cx="32.5" cy="31.5" r="11.5"/></g><g fill="#fff" transform="translate(341 69)"><path d="m16 37h80v22h-80z"/><circle cx="95" cy="45" r="14"/><circle cx="15.5" cy="43.5" r="15.5"/><circle cx="69.5" cy="29.5" r="29.5"/><circle cx="32.5" cy="31.5" r="11.5"/></g><g fill="#ffe500" stroke="#fff" stroke-linecap="round" stroke-linejoin="round" stroke-width="5"><path d="m72.314 113.5h65.172m-101.486 0h12.283"/><path d="m351.314 142.5h65.172m-91.486 0h12.283"/><path d="m324.592 27h46.045m-58.194 0h2.235"/></g></g><path d="m300.326 113.35 113.932 101.17h-227.865z" fill="#2b3e51"/><path d="m187.742 214.52h226.517v36.861h-226.517z" fill="#bdc3c7"/><g transform="translate(219.202 114.275)"><use fill="#d8d8d8" xlink:href="#b"/><g mask="url(#e)"><path d="m0 81.365h163.596v17.082h-163.596zm0-80.016h163.596v21.577h-163.596z" fill="#bdc3c7"/><path d="m0 76.87h163.596v4.495h-163.596v-4.496zm0-11.688h163.596v4.495h-163.596zm0-11.688h163.596v4.495h-163.596zm0-11.688h163.596v4.495h-163.596zm0-11.688h163.596v4.496h-163.596z" fill="#ecf0f1"/><path d="m0 69.677h163.596v7.192h-163.596zm0-11.688h163.596v7.193h-163.596zm0-11.688h163.596v7.193h-163.596v-7.194zm0-11.687h163.596v7.192h-163.596zm0-11.688h163.596v7.192h-163.596z" fill="#d55400"/></g></g><g transform="translate(101 212.721)"><path d="m289.888 28.77h19.775v89.906h-19.775z" fill="#2c97de"/><path d="m289.888 28.77h19.775v4.495h-19.775zm0 42.705h19.775v4.495h-19.775zm0 21.128h19.775v4.495h-19.775zm0-42.256h19.775v4.496h-19.775zm0 63.833h19.775v4.496h-19.775z" fill="#00bd9c"/><path d="m314.158 17.082h-19.326v11.688h14.831z" fill="#ecf0f1"/><path d="m90.337 28.77h19.775v89.906h-19.775z" fill="#2c97de"/><path d="m90.337 28.77h19.775v4.495h-19.775zm0 42.705h19.775v4.495h-19.775zm0 21.128h19.775v4.495h-19.775zm0-42.256h19.775v4.495h-19.775zm0 63.833h19.775v4.496h-19.775z" fill="#00bd9c"/><path d="m85.393 17.082h19.326v11.688h-14.382z" fill="#ecf0f1"/><path d="m70.562 50.348h19.775v89.906h-19.775z" fill="#227fbb"/><path d="m70.562 50.348h19.775v4.495h-19.775zm0 42.705h19.775v4.495h-19.775zm0 21.128h19.775v4.495h-19.775zm0-42.256h19.775v4.495h-19.775zm0 63.833h19.775v4.496h-19.775z" fill="#00a185"/><path d="m65.618 38.66h24.72v11.688h-19.777z" fill="#ecf0f1"/><path d="m4.944 114.181h65.618v89.906h-65.618z" fill="#2c97de"/><path d="m4.944 114.181h65.618v4.495h-65.618zm0 42.705h65.618v4.495h-65.618zm0 21.128h65.618v4.495h-65.618zm0-42.256h65.618v4.495h-65.618zm0 63.833h65.618v4.496h-65.618z" fill="#00bd9c"/><path d="m4.944 204.087h65.618v7.192h-65.618z" fill="#fff"/><path d="m0 102.493h70.562v11.688h-65.618z" fill="#ecf0f1"/><path d="m395.056 114.181h-65.618v89.906h65.618z" fill="#2c97de"/><path d="m395.056 114.181h-65.618v4.495h65.618zm0 42.705h-65.618v4.495h65.618zm0 21.128h-65.618v4.495h65.618zm0-42.256h-65.618v4.495h65.618zm0 63.833h-65.618v4.496h65.618z" fill="#00bd9c"/><path d="m395.056 204.087h-65.618v7.192h65.618z" fill="#fff"/><path d="m400 102.493h-70.562v11.688h65.618z" fill="#ecf0f1"/><path d="m329.438 50.348h-19.775v89.906h19.775z" fill="#227fbb"/><path d="m329.438 50.348h-19.775v4.495h19.775zm0 42.705h-19.775v4.495h19.775zm0 21.128h-19.775v4.495h19.775zm0-42.256h-19.775v4.495h19.775zm0 63.833h-19.775v4.496h19.775z" fill="#00a185"/><path d="m334.382 38.66h-24.72v11.688h19.776z" fill="#ecf0f1"/><g transform="translate(50.787)"><use fill="#ecf0f1" xlink:href="#c"/><path d="m0 125.419h298.427v85.86h-298.427z" fill="#f2c500" mask="url(#f)"/></g><path d="m117.303 151.491h165.393v59.787h-165.393z" fill="#7f8c8d"/><path d="m125.393 118.676h149.213v32.816h-149.213z" fill="#bdc3c7"/><path d="m124.944 28.77h150.112v89.906h-150.112z" fill="#2c97de"/><path d="m124.944 28.77h31.46v4.495h-31.46zm0 42.705h31.46v4.495h-31.46zm0 21.128h31.46v4.495h-31.46zm0-42.256h31.46v4.496h-31.46zm0 63.833h31.46v4.496h-31.46zm118.652-85.41h31.46v4.495h-31.46zm0 42.705h31.46v4.495h-31.46zm0 21.128h31.46v4.495h-31.46zm0-42.256h31.46v4.496h-31.46zm0 63.833h31.46v4.496h-31.46z" fill="#00bd9c"/><path d="m109.214 28.77h16.18v182.509h-16.18z" fill="#fff"/><path d="m104.72 28.77h25.169v4.495h-25.169z" fill="#ecf0f1"/><path d="m105.619 33.265h23.371v4.495h-23.371z" fill="#fff"/><path d="m106.518 37.761h21.573v4.495h-21.573z" fill="#ecf0f1"/><path d="m107.417 42.256h19.775v4.495h-19.775z" fill="#fff"/><path d="m108.316 46.751h17.977v4.495h-17.977z" fill="#ecf0f1"/><path d="m106.518 211.279h21.573v-4.495h-21.573z" fill="#ecf0f1"/><path d="m107.417 206.784h19.775v-4.496h-19.775z" fill="#fff"/><path d="m108.316 202.288h17.977v-4.495h-17.977z" fill="#ecf0f1"/><path d="m191.91 118.676h16.18v92.603h-16.18z" fill="#fff"/><path d="m187.416 118.676h25.169v4.495h-25.169z" fill="#ecf0f1"/><path d="m188.315 123.171h23.371v4.495h-23.371z" fill="#fff"/><path d="m189.214 127.667h21.573v4.495h-21.573z" fill="#ecf0f1"/><path d="m190.113 132.162h19.775v4.495h-19.775z" fill="#fff"/><path d="m191.012 136.657h17.977v4.495h-17.977z" fill="#ecf0f1"/><path d="m189.214 211.279h21.573v-4.495h-21.573z" fill="#ecf0f1"/><path d="m190.113 206.784h19.775v-4.496h-19.775z" fill="#fff"/><path d="m191.012 202.288h17.977v-4.495h-17.977z" fill="#ecf0f1"/><path d="m232.359 118.676h16.18v92.603h-16.18z" fill="#fff"/><path d="m227.865 118.676h25.169v4.495h-25.169z" fill="#ecf0f1"/><path d="m228.764 123.171h23.371v4.495h-23.371z" fill="#fff"/><path d="m229.663 127.667h21.573v4.495h-21.573z" fill="#ecf0f1"/><path d="m230.562 132.162h19.775v4.495h-19.775z" fill="#fff"/><path d="m231.46 136.657h17.978v4.495h-17.977z" fill="#ecf0f1"/><path d="m229.663 211.279h21.573v-4.495h-21.573z" fill="#ecf0f1"/><path d="m230.562 206.784h19.775v-4.496h-19.775z" fill="#fff"/><path d="m231.46 202.288h17.978v-4.495h-17.977z" fill="#ecf0f1"/><path d="m148.314 118.676h16.18v92.603h-16.18z" fill="#fff"/><path d="m143.82 118.676h25.169v4.495h-25.169z" fill="#ecf0f1"/><path d="m144.719 123.171h23.371v4.495h-23.371z" fill="#fff"/><path d="m145.618 127.667h21.573v4.495h-21.573z" fill="#ecf0f1"/><path d="m146.517 132.162h19.775v4.495h-19.775z" fill="#fff"/><path d="m147.416 136.657h17.977v4.495h-17.977z" fill="#ecf0f1"/><path d="m145.618 211.279h21.573v-4.495h-21.573z" fill="#ecf0f1"/><path d="m146.517 206.784h19.775v-4.496h-19.775z" fill="#fff"/><path d="m147.416 202.288h17.977v-4.495h-17.977z" fill="#ecf0f1"/><path d="m274.606 28.77h16.18v182.509h-16.18z" fill="#fff"/><path d="m270.112 28.77h25.169v4.495h-25.169z" fill="#ecf0f1"/><path d="m271.011 33.265h23.371v4.495h-23.371z" fill="#fff"/><path d="m271.91 37.761h21.573v4.495h-21.573z" fill="#ecf0f1"/><path d="m272.809 42.256h19.775v4.495h-19.775z" fill="#fff"/><path d="m273.708 46.751h17.977v4.495h-17.977z" fill="#ecf0f1"/><path d="m271.91 211.279h21.573v-4.495h-21.573z" fill="#ecf0f1"/><path d="m272.809 206.784h19.775v-4.496h-19.774z" fill="#fff"/><path d="m273.708 202.288h17.977v-4.495h-17.977z" fill="#ecf0f1"/><path d="m100.225 10.34h199.55l-4.494 18.43h-190.562z" fill="#fff"/><path d="m156.404 28.77h87.191v89.906h-87.191z" fill="#ecf0f1"/><ellipse cx="200" cy="73.723" fill="#fff" rx="30.562" ry="30.568"/><path d="m57.079 151.041h43.146v60.237h-65.618z" fill="#2b3e51"/><path d="m57.079 151.491h43.146v-13.486h-49.438z" fill="#fff"/><path d="m342.921 151.041h-43.146v60.237h65.618z" fill="#2b3e51"/><path d="m342.921 151.491h-43.146v-13.486h49.438z" fill="#fff"/><path d="m124.944 114.18h149.663v4.495h-149.663z" fill="#ecf0f1"/></g><path d="m301 90 120.45 103.392v26.971l-120.45-103.391-120.45 103.391v-26.971z" fill="#fff"/></g></svg>