<svg height="600" width="600" xmlns="http://www.w3.org/2000/svg" xmlns:xlink="http://www.w3.org/1999/xlink"><defs><circle id="a" cx="225" cy="225" r="225"/><path id="b" d="m0 11.775c0-6.503 5.358-11.775 11.968-11.775v11.775z"/><path id="c" d="m11.968 11.775h-11.968v-11.775c6.61 0 11.968 5.272 11.968 11.775z"/><mask id="d" fill="#fff"><use fill="#fff" fill-rule="evenodd" xlink:href="#a"/></mask><mask id="e" fill="#fff"><use fill="#fff" fill-rule="evenodd" xlink:href="#b"/></mask><mask id="f" fill="#fff"><use fill="#fff" fill-rule="evenodd" xlink:href="#c"/></mask></defs><g fill="none" fill-rule="evenodd"><g transform="translate(76 75)"><use fill="#2c97de" xlink:href="#a"/><path d="m28 349h397v131h-397z" fill="#1fce6d" mask="url(#d)"/><g fill="#fff" transform="translate(3 40)"><path d="m16 37h80v22h-80z"/><circle cx="95" cy="45" r="14"/><circle cx="15.5" cy="43.5" r="15.5"/><circle cx="69.5" cy="29.5" r="29.5"/><circle cx="32.5" cy="31.5" r="11.5"/></g><g fill="#fff" transform="translate(341 69)"><path d="m16 37h80v22h-80z"/><circle cx="95" cy="45" r="14"/><circle cx="15.5" cy="43.5" r="15.5"/><circle cx="69.5" cy="29.5" r="29.5"/><circle cx="32.5" cy="31.5" r="11.5"/></g><g fill="#ffe500" stroke="#fff" stroke-linecap="round" stroke-linejoin="round" stroke-width="5"><path d="m72.314 113.5h65.172m-101.486 0h12.283"/><path d="m351.314 142.5h65.172m-91.486 0h12.283"/><path d="m324.592 27h46.045m-58.194 0h2.235"/></g></g><g transform="translate(248 27)"><path d="m25.645 74.017h51.29v11.775h-51.29z" fill="#fff"/><path d="m37.613 62.242h27.355v11.775h-27.355zm-5.13 23.55h37.614l6.838 151.399h-51.29z" fill="#ecf0f1"/><path d="m20.516 233.826h61.548v70.653h-61.548zm-3.419 80.746h68.387v31.962h-68.387z" fill="#ecf0f1"/><path d="m13.677 346.534h75.226v16.822h-75.226zm-13.677 33.644h106v16.822h-106z" fill="#fff"/><path d="m6.839 363.356h88.903v16.822h-88.903z" fill="#ecf0f1"/><path d="m17.097 223.733h68.387l-3.42 16.822h-61.547z" fill="#fff"/><ellipse cx="51.29" cy="223.733" fill="#fff" rx="11.968" ry="11.775"/><ellipse cx="51.29" cy="220.369" fill="#f2c500" rx="5.129" ry="5.047"/><g transform="translate(73.516 211.958)"><use fill="#fff" xlink:href="#b"/><ellipse cx="11.968" cy="8.411" fill="#f2c500" mask="url(#e)" rx="5.129" ry="5.047"/></g><g transform="translate(17.097 211.958)"><use fill="#fff" xlink:href="#c"/><ellipse cy="8.411" fill="#f2c500" mask="url(#f)" rx="5.129" ry="5.047"/></g><path d="m20.516 230.462c-.944 0-1.71-.753-1.71-1.682 0-.93.766-1.683 1.71-1.683s1.71.754 1.71 1.683-.766 1.682-1.71 1.682zm13.678 0c-.945 0-1.71-.753-1.71-1.682 0-.93.765-1.683 1.71-1.683.944 0 1.71.754 1.71 1.683s-.766 1.682-1.71 1.682zm13.677 0c-.944 0-1.71-.753-1.71-1.682 0-.93.766-1.683 1.71-1.683s1.71.754 1.71 1.683-.766 1.682-1.71 1.682zm13.677 0c-.944 0-1.71-.753-1.71-1.682 0-.93.766-1.683 1.71-1.683.945 0 1.71.754 1.71 1.683s-.765 1.682-1.71 1.682zm13.678 0c-.944 0-1.71-.753-1.71-1.682 0-.93.766-1.683 1.71-1.683s1.71.754 1.71 1.683-.766 1.682-1.71 1.682zm-47.871 0c-.944 0-1.71-.753-1.71-1.682 0-.93.766-1.683 1.71-1.683s1.71.754 1.71 1.683-.766 1.682-1.71 1.682zm13.677 0c-.944 0-1.71-.753-1.71-1.682 0-.93.766-1.683 1.71-1.683s1.71.754 1.71 1.683-.766 1.682-1.71 1.682zm13.678 0c-.945 0-1.71-.753-1.71-1.682 0-.93.765-1.683 1.71-1.683.944 0 1.71.754 1.71 1.683s-.766 1.682-1.71 1.682zm13.677 0c-.944 0-1.71-.753-1.71-1.682 0-.93.766-1.683 1.71-1.683s1.71.754 1.71 1.683-.766 1.682-1.71 1.682zm13.678 0c-.945 0-1.71-.753-1.71-1.682 0-.93.765-1.683 1.71-1.683.944 0 1.71.754 1.71 1.683s-.766 1.682-1.71 1.682zm-58.13 10.093c0-4.645 1.531-8.41 3.42-8.41 1.888 0 3.42 3.765 3.42 8.41zm11.968 0c0-4.645 1.531-8.41 3.42-8.41 1.888 0 3.419 3.765 3.419 8.41zm23.936 0c0-4.645 1.53-8.41 3.42-8.41 1.888 0 3.418 3.765 3.418 8.41h-6.837zm11.967 0c0-4.645 1.531-8.41 3.42-8.41 1.888 0 3.42 3.765 3.42 8.41zm-23.935 0c0-4.645 1.53-8.41 3.42-8.41 1.888 0 3.419 3.765 3.419 8.41h-6.84z" fill="#f2c500"/><path d="m18.806 240.555h66.677v5.047h-66.677z" fill="#fff"/><path d="m64.968 260.742v28.597h3.42v6.729h-6.84v-3.365h-20.516v3.365h-6.838v-6.729h3.419v-28.597h-3.42v-6.73h6.84v2.103l6.838-2.523v-4.626h6.839v4.626l6.838 2.523v-2.102h6.84v6.729zm-22.226 1.682v25.233h17.097v-25.233l-8.549-3.365z" fill="#f2c500"/><path d="m20.516 304.479h61.549l3.419 10.093h-68.387z" fill="#fff"/><g fill="#f2c500"><path d="m49.581 105.979h3.419v105.979h-3.419zm-3.42-20.187h10.258v15.14h-10.258zm18.807 0h10.258l-3.42 15.14h-6.838z"/><path d="m37.613 85.792h-10.258l3.42 15.14h6.838z"/><path d="m51.29 0 6.839 62.242h-13.677z"/></g></g></g></svg>