<svg height="600" width="600" xmlns="http://www.w3.org/2000/svg" xmlns:xlink="http://www.w3.org/1999/xlink"><defs><circle id="a" cx="225" cy="225" r="225"/><mask id="b" fill="#fff"><use fill-rule="evenodd" xlink:href="#a"/></mask></defs><g fill="none" fill-rule="evenodd"><g transform="translate(76 75)"><use fill="#2c97de" xlink:href="#a"/><path d="m28 349h397v131h-397z" fill="#1fce6d" mask="url(#b)"/></g><g fill="#fff"><path d="m95 152h80v22h-80z"/><circle cx="174" cy="160" r="14"/><circle cx="94.5" cy="158.5" r="15.5"/><circle cx="148.5" cy="144.5" r="29.5"/><circle cx="111.5" cy="146.5" r="11.5"/></g><g fill="#fff"><path d="m433 181h80v22h-80z"/><circle cx="512" cy="189" r="14"/><circle cx="432.5" cy="187.5" r="15.5"/><circle cx="486.5" cy="173.5" r="29.5"/><circle cx="449.5" cy="175.5" r="11.5"/></g><g fill="#ffe500" stroke="#fff" stroke-linecap="round" stroke-linejoin="round" stroke-width="5"><path d="m148.314 188.5h65.172m-101.486 0h12.283"/><path d="m427.314 217.5h65.172m-91.486 0h12.283"/><path d="m400.592 102h46.045m-58.194 0h2.235"/></g><path d="m299.425 108.976h9.452v178.227h-9.452zm-18.906 0h9.453v178.227h-9.453z" fill="#2b3e51"/><g fill="#ecf0f1"><path d="m244.283 302.536h99.255l64.594 33.562h-228.442z"/><path d="m238.69 314.55 169.442 21.548 20.481 72.552h-211.063z"/><path d="m244.283 329.789-64.594 6.309-20.481 72.552h72.471z"/></g><path d="m244.283 329.789h100.83l12.604 78.861h-126.038z" fill="#fff"/><path d="m230.104 345.561h120.85l100.575 11.04 16.471 9.359-113.934-9.357-145.637-.842z" fill="#00bd9c"/><path d="m280.519 373.951h29.934v34.7h-29.934z" fill="#2b3e51"/><path d="m387.65 408.65v-29.967l7.878 29.967z" fill="#fff"/><path d="m370.32 378.683h17.33v29.967h-17.33z" fill="#2b3e51"/><path d="m370.32 408.65v-29.967l7.878 29.967z" fill="#ecf0f1"/><path d="m307.302 408.65h135.49v3.155h-135.49z" fill="#fff"/><path d="m304.15 411.805h141.793v3.154h-141.792z" fill="#ecf0f1"/><path d="m301 414.96h148.094v3.154h-148.094z" fill="#fff"/><path d="m297.85 418.114h154.395v3.154h-154.395z" fill="#ecf0f1"/><path d="m294.698 421.268h160.698v3.155h-160.698z" fill="#fff"/><path d="m146.604 408.65h135.49v3.155h-135.49z" fill="#fff"/><path d="m143.453 411.805h141.792v3.154h-141.792z" fill="#ecf0f1"/><path d="m140.302 414.96h148.094v3.154h-148.094z" fill="#fff"/><path d="m137.15 418.114h154.397v3.154h-154.396z" fill="#ecf0f1"/><path d="m134 421.268h160.698v3.155h-160.698z" fill="#fff"/><path d="m228.528 408.65h135.49v3.155h-135.49z" fill="#ecf0f1"/><path d="m225.377 411.805h141.793v3.154h-141.793z" fill="#fff"/><path d="m222.226 414.96h148.095v3.154h-148.095z" fill="#ecf0f1"/><path d="m219.075 418.114h154.397v3.154h-154.397z" fill="#fff"/><path d="m215.925 421.268h160.698v3.155h-160.698z" fill="#ecf0f1"/><path d="m260.038 287.28h67.745l15.755 15.256h-99.255z" fill="#fff"/><path d="m302.575 224.114h3.151v9.463h-3.15zm0-91.48h3.151v9.464h-3.15z" fill="#fff"/><path d="m302.575 71.122h3.151v42.585h-3.15z" fill="#2b3e51"/><path d="m301 104.244h6.302l1.575 4.732h-9.452zm-18.906 0h6.302l1.576 4.732h-9.453zm1.576 119.87h3.15v9.463h-3.15zm0-91.48h3.15v9.464h-3.15z" fill="#fff"/><path d="m289.972 134.211h9.453v6.31h-9.453zm0 91.48h9.453v6.309h-9.453z" fill="#2b3e51"/><path d="m294.698 104.244c-16.532 0-29.934-13.417-29.934-29.968 0-16.55 13.402-29.967 29.934-29.967s29.934 13.417 29.934 29.967c0 16.551-13.402 29.968-29.934 29.968zm0-3.155c14.792 0 26.783-12.004 26.783-26.813s-11.991-26.813-26.783-26.813-26.783 12.005-26.783 26.813 11.991 26.813 26.783 26.813z" fill="#ecf0f1"/><path d="m264.764 90.049h59.868v6.309h-59.868z" fill="#ecf0f1"/><g fill="#fff"><path d="m293.123 38h3.15v72.553h-3.15z"/><path d="m255.311 74.276h75.623v1.578h-75.623z"/><path d="m258.462 72.7v4.73l-6.302-2.365zm75.623 0v4.73l-6.302-2.365z"/></g></g></svg>