<svg height="600" width="600" xmlns="http://www.w3.org/2000/svg" xmlns:xlink="http://www.w3.org/1999/xlink"><defs><circle id="a" cx="225" cy="225" r="225"/><mask id="b" fill="#fff"><use fill="#fff" fill-rule="evenodd" xlink:href="#a"/></mask></defs><g fill="none" fill-rule="evenodd"><g transform="translate(76 75)"><use fill="#2c97de" xlink:href="#a"/><path d="m28 349h397v131h-397z" fill="#1fce6d" mask="url(#b)"/><g fill="#fff" transform="translate(3 40)"><path d="m16 37h80v22h-80z"/><circle cx="95" cy="45" r="14"/><circle cx="15.5" cy="43.5" r="15.5"/><circle cx="69.5" cy="29.5" r="29.5"/><circle cx="32.5" cy="31.5" r="11.5"/></g><g fill="#fff" transform="translate(341 69)"><path d="m16 37h80v22h-80z"/><circle cx="95" cy="45" r="14"/><circle cx="15.5" cy="43.5" r="15.5"/><circle cx="69.5" cy="29.5" r="29.5"/><circle cx="32.5" cy="31.5" r="11.5"/></g><g fill="#ffe500" stroke="#fff" stroke-linecap="round" stroke-linejoin="round" stroke-width="5"><path d="m72.314 113.5h65.172m-101.486 0h12.283"/><path d="m351.314 142.5h65.172m-91.486 0h12.283"/><path d="m324.592 27h46.045m-58.194 0h2.235"/></g></g><path d="m201.886 424.333h196.228v5.556h-196.228z" fill="#e94b35"/><path d="m196.343 429.889h207.314v5.555h-207.314z" fill="#c23824"/><path d="m190.799 435.444h218.401v5.556h-218.401z" fill="#e94b35"/><path d="m207.429 368.778h185.142v55.556h-185.142z" fill="#2b3e51"/><path d="m214.08 408.778v12.222h3.327v-12.222h-3.326zm-3.325 0h-3.326v-3.334h56.54v3.334h-3.326v12.222h3.326v3.333h-56.54v-3.333h3.326zm9.978 0v12.222h3.325v-12.222zm6.651 0v12.222h3.326v-12.222zm6.652 0v12.222h3.326v-12.222zm6.652 0v12.222h3.326v-12.222zm6.652 0v12.222h3.326v-12.222zm6.652 0v12.222h3.326v-12.222zm88.69 0v12.222h3.326v-12.222zm-3.325 0h-3.326v-3.334h56.54v3.334h-3.326v12.222h3.326v3.333h-56.54v-3.333h3.326zm9.977 0v12.222h3.326v-12.222zm6.652 0v12.222h3.326v-12.222zm6.652 0v12.222h3.326v-12.222zm6.652 0v12.222h3.326v-12.222zm6.652 0v12.222h3.325v-12.222zm6.651 0v12.222h3.326v-12.222z" fill="#f59d00"/><path d="m180.822 268.778h238.357v100h-238.357z" fill="#e94b35"/><path d="m101 285.444h79.822v83.333h-79.822zm318.178 0h79.822v83.333h-79.822z" fill="#fff"/><path d="m110.978 368.778h90.908v55.556h-90.908zm287.136 0h90.908v55.556h-90.908z" fill="#ecf0f1"/><path d="m201.886 368.778h5.543v55.556h-5.543zm190.685 0h5.543v55.556h-5.543zm-128.602 0h5.543v55.556h-5.543zm66.518 0h5.543v55.556h-5.543z" fill="#c23824"/><path d="m269.513 368.778h60.975v11.111h-60.975z" fill="#ecf0f1"/><path d="m269.513 379.889h60.975v5.556h-60.975zm0 11.111h60.975v5.556h-60.975zm0 11.111h60.975v5.556h-60.975zm0 11.111h60.975v5.556h-60.975z" fill="#94a5a6"/><path d="m269.513 385.445h60.975v5.556h-60.975zm0 11.111h60.975v5.556h-60.975zm0 11.111h60.975v5.556h-60.975zm0 11.111h60.975v5.556h-60.975z" fill="#7f8c8d"/><path d="m269.513 368.778h4.435v55.556h-4.435zm56.54 0h4.435v55.556h-4.435z" fill="#f59d00"/><path d="m201.886 22.111h196.228v183.889h-196.228z" fill="#e94b35"/><path d="m202.994 194.333h194.012v-183.333h5.543v257.778h-205.099v-257.778h5.543v183.333z" fill="#ecf0f1"/><path d="m214.635 200.444h170.73l5.543 40h-181.816z" fill="#e94b35"/><path d="m209.092 239.889h181.816l11.086 28.889h-203.988z" fill="#c23824"/><path d="m219.624 199.889-5.543 40-11.087 28.889h-5.543l11.087-28.89 5.543-40v-40h5.543v40z" fill="#fff"/><path d="m219.624 199.889-5.543 40-11.087 28.889h-5.543l11.087-28.89 5.543-40v-40h5.543v40zm160.752 0 5.543 40 11.087 28.889h5.543l-11.087-28.89-5.543-40v-40h-5.543v40z" fill="#fff"/><path d="m219.624 159.889h160.752v3.333h-160.752z" fill="#2b3e51"/><path d="m219.624 163.222h160.752v37.222h-160.752z" fill="#c23824"/><path d="m288.914 368.778h22.173v11.667h-22.173z" fill="#2b3e51"/></g></svg>